<?xml version="1.0" encoding="UTF-8"?>
<!DOCTYPE svg  PUBLIC '-//W3C//DTD SVG 1.1//EN'  'http://www.w3.org/Graphics/SVG/1.1/DTD/svg11.dtd'>
<svg version="1.1" xmlns="http://www.w3.org/2000/svg">
<defs>
<font id="AdventPro-SemiBold" horiz-adv-x="267">
<font-face font-family="Advent Pro SemiBold" font-weight="600" ascent="800" bbox="-45 -232 757 915" cap-height="700" descent="-200" panose-1="0 0 0 0 0 0 0 0 0 0" underline-position="-125" underline-thickness="50" unicode-range="U+0020-9997" units-per-em="1000" x-height="500"/>
<missing-glyph/>
<glyph glyph-name="space" horiz-adv-x="280" unicode=" "/>
<glyph d="M39 652l16 -531h67l18 532q0 29 -13 43t-39 14q-24 0 -36.5 -14t-12.5 -44zM90 93q-21 0 -36 -15t-15 -37q0 -21 15 -36t36 -15t35.5 15t14.5 36q0 22 -14.5 37t-35.5 15z" glyph-name="exclam" horiz-adv-x="179" unicode="!"/>
<glyph d="M166 698l13 -109h55l14 109q0 20 -12.5 30.5t-28.5 10.5t-28.5 -10.5t-12.5 -30.5zM29 698l14 -109h55l15 109q0 20 -12.5 30.5t-29.5 10.5t-29.5 -10.5t-12.5 -30.5z" glyph-name="quotedbl" horiz-adv-x="278" unicode='"'/>
<glyph d="M437 261l27 115h118v95h-95l55 229h-96l-54 -229h-118l53 229h-88l-53 -229h-154v-95h132l-27 -115h-105v-86h84l-42 -175h90l40 175h118l-40 -175h94l40 175h166v86h-145zM343 261h-119l27 115h119z" glyph-name="numbersign" horiz-adv-x="616" unicode="#"/>
<glyph d="M236 -115h92v934h-92v-934zM421 595l27 78q-24 13 -50.5 21t-53.5 12t-54 4q-38 0 -78.5 -9.5t-74 -30t-54 -53.5t-20.5 -81q0 -39 14.5 -68.5t40 -51.5t56 -39t64 -31.5t64.5 -29t56 -31.5t40 -39t15 -51q0 -32 -12.5 -54.5t-33.5 -37t-47 -21.5t-54 -7q-33 0 -66.5 8.5 t-63.5 25.5t-52 41l-52 -61q29 -34 66.5 -56t80 -33.5t87.5 -11.5q48 0 92 11.5t79 36.5t55 64t20 93q0 44 -15 77t-40.5 57.5t-57 43t-65 33.5t-65 28.5t-57 28.5t-40 34t-14.5 43q0 25 13 42t33 26.5t42.5 13.5t42.5 4q23 0 45.5 -3t44.5 -9.5t42 -16.5z" glyph-name="dollar" horiz-adv-x="541" unicode="$"/>
<glyph d="M39 0h100l539 700h-100zM184 715q-40 0 -73.5 -19.5t-53.5 -52.5t-20 -74q0 -40 20 -73t53.5 -53t73.5 -20q39 0 72 20t53 53t20 73q0 41 -20 74t-53 52.5t-72 19.5zM184 636q18 0 32.5 -9t24 -24.5t9.5 -33.5q0 -17 -9.5 -32.5t-24 -24.5t-32.5 -9q-19 0 -34 9t-24 24.5 t-9 32.5q0 18 9 33.5t24 24.5t34 9zM545 278q-40 0 -73.5 -19.5t-53.5 -52.5t-20 -74q0 -40 20 -73.5t53.5 -53t73.5 -19.5t73 19.5t52.5 53t19.5 73.5q0 41 -19.5 74t-52.5 52.5t-73 19.5zM545 199q18 0 33 -9t23.5 -24.5t8.5 -33.5t-8.5 -33.5t-23.5 -24.5t-33 -9t-33 9 t-24 24.5t-9 33.5t9 33.5t24 24.5t33 9z" glyph-name="percent" horiz-adv-x="724" unicode="%"/>
<glyph d="M382 611l23 92h-167q-46 0 -81.5 -19t-56 -53t-19.5 -78q0 -29 10.5 -57t31 -51.5t48.5 -40.5h-15q-28 0 -51 -8.5t-39.5 -26.5t-25.5 -46t-9 -67v-95q0 -36 9 -64t24.5 -47t37 -30.5t46 -17t50.5 -5.5q21 0 45 6t47.5 19t40.5 31q17 -27 46 -42t71 -19l27 73 q-34 4 -54.5 20t-20.5 52v184h77l23 83h-100v104h-91v-104h-25q-22 8 -41.5 21t-35.5 30.5t-25 38t-9 45.5q0 35 22.5 53.5t55.5 18.5h131zM309 324v-153q0 -26 -13 -45t-34.5 -30.5t-48.5 -12.5q-28 -2 -48.5 8t-31 29t-10.5 45v92q0 21 6.5 34.5t17.5 20.5t24 9.5t25 2.5 h113z" glyph-name="ampersand" horiz-adv-x="530" unicode="&amp;"/>
<glyph d="M52 699l14 -110h55l14 110q0 20 -12.5 30t-29 10t-29 -10t-12.5 -30z" glyph-name="quotesingle" horiz-adv-x="188" unicode="'"/>
<glyph d="M198 749l-42 70q-43 -24 -68 -55.5t-36.5 -69t-11.5 -81.5v-526q0 -37 6.5 -66.5t20.5 -53.5t36 -45t53 -40l43 68q-8 5 -19 14.5t-22 26t-18 41t-7 58.5v528q0 31 6.5 53.5t16.5 38t21.5 24.5t20.5 15z" glyph-name="parenleft" horiz-adv-x="221" unicode="("/>
<glyph d="M23 747l43 72q32 -18 54 -40.5t35.5 -48.5t19.5 -55t6 -62v-526q0 -37 -6 -66.5t-20 -53.5t-36.5 -45t-53.5 -40l-42 68q7 5 18.5 15t22 26.5t18 40.5t7.5 58v528q0 31 -6.5 53.5t-17 37t-22 24t-20.5 14.5z" glyph-name="parenright" horiz-adv-x="221" unicode=")"/>
<glyph d="M57 646l-32 -85l114 -19l-83 -80l81 -58l47 112l49 -112l81 57l-86 80l117 19l-37 86l-97 -58l22 112h-98l22 -112z" glyph-name="asterisk" horiz-adv-x="372" unicode="*"/>
<glyph d="M236 531h-93v-118h-114v-89h114v-113h93v113h113v89h-113v118z" glyph-name="plus" horiz-adv-x="381" unicode="+"/>
<glyph d="M74 -72l21 -16q3 2 12.5 11t21.5 25t20.5 39t8.5 54q0 21 -14.5 36t-35.5 15t-36 -15t-15 -36q0 -18 11 -32t28 -18q-3 -15 -7.5 -31t-14.5 -32z" glyph-name="comma" horiz-adv-x="214" unicode=","/>
<glyph d="M35 323h320v91h-320v-91z" glyph-name="hyphen" horiz-adv-x="393" unicode="-"/>
<glyph d="M86 88q-21 0 -36 -14.5t-15 -36.5q0 -21 15 -36t36 -15t36.5 15t15.5 36q0 22 -15.5 36.5t-36.5 14.5z" glyph-name="period" horiz-adv-x="172" unicode="."/>
<glyph d="M25 -115h85l327 934h-87z" glyph-name="slash" horiz-adv-x="459" unicode="/"/>
<glyph d="M35 508v-322q0 -65 28.5 -109t76.5 -66t107 -22q63 0 110.5 23.5t73.5 68t26 105.5v321q0 98 -55 154t-154 56t-156 -53.5t-57 -155.5zM128 200v290q0 45 13.5 74t39.5 43t65 14q41 0 67.5 -14.5t39 -43t12.5 -73.5v-290q0 -37 -15 -63.5t-41 -40.5t-63 -14 q-36 0 -62.5 14t-41 40t-14.5 64z" glyph-name="zero" horiz-adv-x="494" unicode="0"/>
<glyph d="M16 627l27 -77q4 0 15.5 3t26.5 8t29 11t21 12v-584h91v700h-91q-14 -20 -34.5 -34t-40 -22.5t-32.5 -12.5t-12 -4z" glyph-name="one" horiz-adv-x="269" unicode="1"/>
<glyph d="M46 590l79 -38q8 23 22.5 38t33 23t38.5 8q22 0 41 -10t31 -29t12 -48q0 -14 -2.5 -28t-11.5 -33t-29 -49l-229 -338v-86h366v85h-259l196 295q30 46 45.5 84.5t15.5 79.5q0 55 -25.5 91.5t-65.5 55.5t-84 19q-38 0 -72.5 -14t-60.5 -40.5t-41 -65.5z" glyph-name="two" horiz-adv-x="432" unicode="2"/>
<glyph d="M231 409l-3 2l135 199v90h-291v-92h187l-190 -285h110q37 0 70.5 -13t55 -40.5t21.5 -68.5q0 -35 -15.5 -63t-43 -43.5t-63.5 -15.5t-67 15.5t-54 43.5l-62 -63q38 -45 84.5 -66t99.5 -21q45 0 83.5 16.5t68 45.5t45.5 67.5t16 83.5q0 56 -23.5 101t-66 73.5t-97.5 33.5z " glyph-name="three" horiz-adv-x="448" unicode="3"/>
<glyph d="M333 0h93v323h51l20 91h-71v286h-93v-286h-163l133 286h-94l-191 -377h315v-323z" glyph-name="four" horiz-adv-x="524" unicode="4"/>
<glyph d="M156 412l19 196h183v92h-265l-36 -374h113q49 0 83 -14t52 -41t18 -67q0 -27 -9 -49.5t-25.5 -39t-38.5 -26t-50 -9.5q-32 0 -58.5 6.5t-45.5 14.5t-29.5 14.5l-10.5 6.5l-33 -80q0 1 13.5 -7t38.5 -19t57.5 -19.5t70.5 -8.5q52 0 91 19.5t66 51t40.5 68.5t13.5 73 q0 62 -26.5 109.5t-77.5 75t-123 27.5h-31z" glyph-name="five" horiz-adv-x="443" unicode="5"/>
<glyph d="M273 616h39v84h-34q-73 0 -128.5 -29t-86 -82t-30.5 -127v-258q0 -59 28.5 -107.5t77 -77.5t107.5 -29q45 0 83.5 16.5t67.5 46t45.5 68.5t16.5 83q0 60 -28.5 107.5t-77 75t-108.5 27.5q-16 0 -40.5 -4.5t-47 -14t-33.5 -23.5v72q0 48 16 87t48.5 62t84.5 23zM246 324 q25 0 47 -9.5t38.5 -26.5t26 -38.5t9.5 -46.5t-9.5 -47t-26 -39t-38.5 -26.5t-47 -9.5q-33 0 -60.5 16.5t-44.5 44.5t-17 61q0 25 10 46.5t26.5 38.5t39 26.5t46.5 9.5z" glyph-name="six" horiz-adv-x="487" unicode="6"/>
<glyph d="M133 0l301 608v92h-393v-92h289l-300 -608h103z" glyph-name="seven" horiz-adv-x="456" unicode="7"/>
<glyph d="M243 710q-49 0 -88.5 -23.5t-63 -63.5t-23.5 -89q0 -30 8 -56.5t25 -48.5t42 -39q-34 -17 -60 -47t-40.5 -66.5t-14.5 -74.5q0 -59 29 -107.5t77.5 -77.5t107.5 -29t107.5 29t77.5 77.5t29 107.5q0 39 -14.5 75t-40 64.5t-59.5 47.5q40 26 58.5 61.5t18.5 83.5 q0 49 -24 88.5t-63.5 63.5t-88.5 24zM242 449q-23 0 -42 12t-31 31.5t-12 42.5q0 24 11.5 43t31 30t42.5 11q24 0 43 -11t30.5 -30t11.5 -43q0 -23 -11.5 -42.5t-31 -31.5t-42.5 -12zM242 79q-34 0 -61.5 16.5t-44 44.5t-16.5 62q0 25 9.5 47t26 39t39 26.5t47.5 9.5 q35 0 62.5 -16.5t43.5 -44t16 -61.5t-16.5 -62t-44 -44.5t-61.5 -16.5z" glyph-name="eight" horiz-adv-x="486" unicode="8"/>
<glyph d="M238 710q-45 0 -83.5 -16t-68 -45t-45.5 -67.5t-16 -83.5q0 -61 28.5 -109t76.5 -75.5t109 -27.5q33 0 57 8t39.5 18t22.5 16v-71q0 -46 -15.5 -85.5t-48.5 -63t-84 -23.5h-39v-86h35q73 0 128 30t85.5 84t30.5 126v259q0 60 -28 108t-76 76t-108 28zM238 619 q34 0 61 -16t43 -43.5t16 -61.5q0 -25 -9 -47t-25.5 -39t-38 -26t-47.5 -9q-25 0 -47 9t-39 26t-26.5 39t-9.5 47t9.5 47t26.5 38.5t39 26t47 9.5z" glyph-name="nine" horiz-adv-x="485" unicode="9"/>
<glyph d="M140 144q0 21 -15.5 36.5t-36.5 15.5t-36 -15.5t-15 -36.5t15 -36t36 -15t36.5 15t15.5 36zM140 386q0 20 -15.5 35t-36.5 15t-36 -15t-15 -35q0 -21 15 -36.5t36 -15.5t36.5 15.5t15.5 36.5z" glyph-name="colon" horiz-adv-x="179" unicode=":"/>
<glyph d="M55 30l22 -15q3 2 12.5 11t21.5 25t20.5 39t8.5 54q0 22 -15 36t-36 14t-36 -14.5t-15 -35.5q0 -17 11.5 -31.5t28.5 -18.5q-1 -14 -6.5 -31t-16.5 -33zM142 386q0 20 -15 35t-37 15q-21 0 -35.5 -15t-14.5 -35q0 -21 14.5 -36.5t35.5 -15.5q22 0 37 15.5t15 36.5z" glyph-name="semicolon" horiz-adv-x="181" unicode=";"/>
<glyph d="M26 359l278 -279l61 58l-220 220l222 220l-63 60z" glyph-name="less" horiz-adv-x="400" unicode="&lt;"/>
<glyph d="M35 357h321v89h-321v-89zM35 221h321v88h-321v-88z" glyph-name="equal" horiz-adv-x="394" unicode="="/>
<glyph d="M31 578l222 -220l-220 -220l60 -58l279 279l-279 279z" glyph-name="greater" horiz-adv-x="402" unicode="&gt;"/>
<glyph d="M26 533h95q0 22 7 39t19.5 28t27.5 16.5t32 5.5q25 0 46 -12t33 -33t12 -47t-10.5 -48t-27.5 -42.5t-35 -42.5q-14 -17 -27.5 -35.5t-24.5 -41t-17.5 -49t-6.5 -58.5v-93h89v90q0 28 4.5 48.5t13.5 37.5t22.5 33.5t32.5 36.5q21 24 39 48.5t29 52.5t11 61q0 42 -15 75.5 t-40 57.5t-58.5 36.5t-70.5 12.5q-33 0 -65 -10.5t-58 -32t-41.5 -55t-15.5 -79.5zM194 88q-21 0 -36 -14.5t-15 -36.5q0 -21 15 -36t36 -15t36 15t15 36q0 22 -15 36.5t-36 14.5z" glyph-name="question" horiz-adv-x="420" unicode="?"/>
<glyph d="M757 428l-26 60q-41 -8 -62.5 -27t-30 -46t-8.5 -61v-191q0 -42 -17 -73t-49.5 -51t-78 -29.5t-103.5 -9.5q-66 0 -115 12t-81 38t-48 67t-16 98v120q0 43 10 76.5t31.5 56.5t56.5 34.5t86 11.5q67 0 106 -14.5t43 -55.5h-130q-29 0 -54 -8.5t-44.5 -26.5t-30.5 -48 t-11 -74v-52q0 -42 11 -74.5t32.5 -55t53.5 -33.5t75 -11q20 0 45.5 1t50.5 2t46 2.5t33.5 2.5l12.5 1v290h41l19 84h-63q-2 43 -19.5 72t-49 47t-74.5 26t-97 8q-64 0 -114 -16.5t-85 -50t-52.5 -83.5t-17.5 -118v-144q0 -69 26 -119.5t73 -84t110 -50t135 -16.5 q86 0 149.5 19.5t105.5 55t63 83.5t21 103v175q0 19 3 33t12 25t26 19zM343 360h115v-215q-7 -1 -17.5 -1.5t-23 -1.5t-26 -1.5t-28.5 -0.5q-43 0 -65 20.5t-22 71.5v52q0 33 11.5 49t27 21.5t28.5 5.5z" glyph-name="at" horiz-adv-x="786" unicode="@"/>
<glyph d="M524 0l-192 700h-121l-188 -700h103l53 204h183l54 -204h108zM202 301l69 275l70 -275h-139z" glyph-name="A" horiz-adv-x="546" unicode="A"/>
<glyph d="M251 700h-210v-700h224q69 0 115.5 25.5t71 72t24.5 109.5q0 47 -13.5 82t-37.5 59.5t-53 37.5q22 15 37 36t22.5 47t7.5 56q0 57 -23 96t-65 59t-100 20zM220 413h-86v196h91q36 0 60.5 -9.5t36.5 -30.5t12 -54q0 -35 -12 -58t-37 -33.5t-65 -10.5zM245 86h-111v238h109 q43 0 71.5 -13.5t42.5 -39.5t14 -61q0 -47 -18 -74t-47 -38.5t-61 -11.5z" glyph-name="B" horiz-adv-x="506" unicode="B"/>
<glyph d="M347 602l25 75q-34 18 -70 26t-73 8q-55 0 -98.5 -22t-69.5 -66.5t-26 -111.5v-327q0 -64 24 -108t68.5 -65.5t106.5 -21.5q38 0 79 9t84 25l-15 85q-13 -3 -36.5 -10t-51 -12t-54.5 -5q-37 0 -61.5 10.5t-37.5 33.5t-13 61v328q0 38 14.5 61.5t41 34.5t64.5 11 q24 0 50.5 -5t48.5 -14z" glyph-name="C" horiz-adv-x="426" unicode="C"/>
<glyph d="M230 700h-189v-700h209q71 0 118.5 23.5t71 69.5t23.5 112v270q0 71 -28 121t-80 77t-125 27zM234 85h-100v524h106q46 0 74 -15t42 -42t14 -65v-292q0 -22 -5.5 -41.5t-20 -35t-41 -24.5t-69.5 -9z" glyph-name="D" horiz-adv-x="498" unicode="D"/>
<glyph d="M41 0h333v84h-240v241h128l27 88h-155v196h242v91h-335v-700z" glyph-name="E" horiz-adv-x="409" unicode="E"/>
<glyph d="M376 700h-335v-700h93v325h124l31 88h-155v196h242v91z" glyph-name="F" horiz-adv-x="394" unicode="F"/>
<glyph d="M352 601l28 76q-20 10 -42.5 17.5t-46.5 11.5t-49 4q-65 0 -111.5 -23.5t-71 -69t-24.5 -113.5v-321q0 -67 27.5 -110t73.5 -63t103 -20q20 0 45 5t49.5 15t41.5 26l5 -36h68v301h-203l30 -89h81v-25q0 -24 -8.5 -43.5t-24 -33.5t-37.5 -21.5t-47 -7.5q-36 0 -60.5 12 t-37.5 35.5t-13 59.5v324q0 41 15.5 64.5t44 33.5t65.5 10q15 0 31.5 -2t33.5 -6t34 -11z" glyph-name="G" horiz-adv-x="481" unicode="G"/>
<glyph d="M380 413h-246v287h-93v-700h93v325h246v-325h93v700h-93v-287z" glyph-name="H" horiz-adv-x="516" unicode="H"/>
<glyph d="M20 614l67 -2v-612h93v700h-160v-86z" glyph-name="I" horiz-adv-x="222" unicode="I"/>
<glyph d="M216 133v567h-154v-86l64 -2v-469q0 -35 -12 -58.5t-34 -35t-53 -11.5l28 -75q39 1 69 13t50.5 34t31 53t10.5 70z" glyph-name="J" horiz-adv-x="257" unicode="J"/>
<glyph d="M139 426v274h-98v-700h98v266l34 55l187 -321h115l-245 405l201 295h-110z" glyph-name="K" horiz-adv-x="497" unicode="K"/>
<glyph d="M41 0h362v85h-269v615h-93v-700z" glyph-name="L" horiz-adv-x="427" unicode="L"/>
<glyph d="M134 700h-93v-700h93v425l137 -425h76l140 426v-426h92v700h-92l-178 -533z" glyph-name="M" horiz-adv-x="622" unicode="M"/>
<glyph d="M535 700h-94v-525l-307 525h-93v-700h93v515l307 -515h94v700z" glyph-name="N" horiz-adv-x="578" unicode="N"/>
<glyph d="M35 508v-322q0 -65 28.5 -109t76.5 -66t107 -22q63 0 110.5 23.5t73.5 68t26 105.5v321q0 98 -55 154t-154 56t-156 -53.5t-57 -155.5zM128 200v290q0 45 13.5 74t39.5 43t65 14q41 0 67.5 -14.5t39 -43t12.5 -73.5v-290q0 -37 -15 -63.5t-41 -40.5t-63 -14 q-36 0 -62.5 14t-41 40t-14.5 64z" glyph-name="O" horiz-adv-x="494" unicode="O"/>
<glyph d="M265 700h-224v-700h93v212h131q44 0 82 11t67.5 38t46 75.5t16.5 123.5q0 71 -17 117.5t-46.5 73.5t-68 38t-80.5 11zM134 301v308h105q36 0 63 -5t45 -20.5t27.5 -45t9.5 -78.5q0 -53 -9.5 -84.5t-27.5 -48t-45 -21.5t-63 -5h-105z" glyph-name="P" horiz-adv-x="508" unicode="P"/>
<glyph d="M288 47v127h-84v-136q0 -34 9 -62.5t30 -48.5t57 -31t91 -11l11 80q-33 0 -55.5 5t-35 14.5t-18 25.5t-5.5 37zM35 508v-322q0 -65 28.5 -109t76.5 -66t107 -22q63 0 110.5 23.5t73.5 68t26 105.5v321q0 98 -55 154t-154 56t-156 -53.5t-57 -155.5zM128 200v290 q0 45 13.5 74t39.5 43t65 14q41 0 67.5 -14.5t39 -43t12.5 -73.5v-290q0 -37 -15 -63.5t-41 -40.5t-63 -14q-36 0 -62.5 14t-41 40t-14.5 64z" glyph-name="Q" horiz-adv-x="494" unicode="Q"/>
<glyph d="M265 700h-224v-700h93v212h131q7 0 14.5 0.5t14.5 0.5t13 2l77 -215h97l-89 244q26 16 45.5 44.5t29.5 71t10 100.5q0 71 -17 117.5t-46.5 73.5t-68 38t-80.5 11zM239 301h-105v308h105q36 0 63 -5t45 -20.5t27.5 -45t9.5 -78.5q0 -53 -9.5 -84.5t-27.5 -48t-45 -21.5 t-63 -5z" glyph-name="R" horiz-adv-x="512" unicode="R"/>
<glyph d="M420 595l26 78q-23 13 -49.5 21t-53.5 12t-54 4q-39 0 -79 -9.5t-74 -30t-54.5 -53.5t-20.5 -81q0 -39 15 -68.5t40 -51.5t56 -39t64 -31.5t64.5 -29t56.5 -31.5t39.5 -39t14.5 -51q0 -32 -12 -54.5t-33.5 -37t-47.5 -21.5t-54 -7q-32 0 -65.5 8.5t-64 25.5t-51.5 41 l-53 -61q30 -34 67.5 -56t80 -33.5t86.5 -11.5q48 0 92 11.5t79 36.5t55 64t20 93q0 44 -15 77t-40 57.5t-56.5 43t-65.5 33.5t-65.5 28.5t-56.5 28.5t-40 34t-15 43q0 25 13 42t33.5 26.5t43 13.5t42.5 4q23 0 45.5 -3t44.5 -9.5t42 -16.5z" glyph-name="S" horiz-adv-x="541" unicode="S"/>
<glyph d="M257 609h157v91h-403v-91h154v-609h92v609z" glyph-name="T" horiz-adv-x="427" unicode="T"/>
<glyph d="M460 186v514h-93v-500q0 -36 -14.5 -62.5t-40.5 -41t-63 -14.5t-63 13.5t-40.5 39.5t-14.5 64v501h-92v-514q0 -64 26.5 -108t74.5 -66.5t110 -22.5t109 22.5t74 66.5t27 108z" glyph-name="U" horiz-adv-x="500" unicode="U"/>
<glyph d="M16 700l185 -700h111l184 700h-106l-134 -532l-136 532h-104z" glyph-name="V" horiz-adv-x="514" unicode="V"/>
<glyph d="M408 700h-78l-107 -508l-102 508h-102l145 -700h114l91 436l93 -436h111l144 700h-104l-97 -508z" glyph-name="W" horiz-adv-x="739" unicode="W"/>
<glyph d="M303 449l-151 251h-112l207 -343l-221 -357h115l162 264l163 -264h115l-221 357l206 343h-110z" glyph-name="X" horiz-adv-x="605" unicode="X"/>
<glyph d="M477 157v543h-93v-288q0 -26 -10.5 -46.5t-28.5 -35t-40.5 -22t-45.5 -7.5q-45 0 -75 15t-45 44.5t-15 72.5v267h-93v-272q0 -66 26 -113t74 -73t112 -26q26 0 51.5 4t48.5 14t41 27v-100q0 -26 -5 -45t-14 -31.5t-22.5 -20t-29.5 -11.5l28 -68q71 8 103.5 51.5 t32.5 120.5z" glyph-name="Y" horiz-adv-x="518" unicode="Y"/>
<glyph d="M41 700v-89l354 -1l-16 -21l-351 -505v-84h489v86l-374 1l15 20l350 503v90h-467z" glyph-name="Z" horiz-adv-x="554" unicode="Z"/>
<glyph d="M135 723l69 10v86h-162v-934h162v86l-69 10v742z" glyph-name="bracketleft" horiz-adv-x="230" unicode="["/>
<glyph d="M341 -115h99l-325 934h-99z" glyph-name="backslash" horiz-adv-x="457" unicode="\"/>
<glyph d="M27 -115h162v934h-162v-86l69 -10v-742l-69 -10v-86z" glyph-name="bracketright" horiz-adv-x="232" unicode="]"/>
<glyph d="M264 773l-128 128l-133 -129l48 -48l85 86l79 -84z" glyph-name="asciicircum" unicode="^"/>
<glyph d="M33 -70h320v70h-320v-70z" glyph-name="underscore" horiz-adv-x="384" unicode="_"/>
<glyph d="M126 710q-3 12 -12.5 20.5t-22 11t-25.5 -5.5q-12 -6 -15.5 -17.5t-0.5 -24t10 -21.5l58 -77h41z" glyph-name="grave" unicode="`"/>
<glyph d="M322 340q-17 19 -42.5 33t-53.5 21.5t-56 7.5t-53.5 -9t-45.5 -26.5t-31.5 -46t-11.5 -67.5v-93q0 -50 16.5 -83.5t45.5 -53t67.5 -27t83.5 -7.5q18 0 37.5 1t39 1.5t37.5 2t33 3.5t26 3v301q0 59 -11 99t-35.5 64.5t-64 35t-97.5 10.5l-7 -65q29 0 52 -5t38.5 -16.5 t24 -31.5t8.5 -52zM322 270v-191l-4.5 -0.5t-12.5 -1t-18 -1.5t-20.5 -1.5t-20.5 -1.5q-40 0 -64.5 6.5t-37.5 19.5t-18 32t-5 44v68q0 20 6 33.5t16 20.5t22 10t24 3q26 0 51.5 -7t47.5 -16.5t34 -16.5z" glyph-name="a" horiz-adv-x="450" unicode="a"/>
<glyph d="M134 480v220h-93v-700q12 -1 27.5 -2t33.5 -2.5t37 -3t37.5 -2.5t35.5 -1q44 0 83 7.5t68.5 26.5t46 52.5t16.5 84.5v200q0 39 -13 67.5t-35.5 47t-50 27t-56.5 8.5q-26 0 -49 -3.5t-44.5 -10t-43.5 -16.5zM134 78v310q12 7 30 13.5t40.5 11.5t48.5 5q12 0 26 -3 t26.5 -10.5t20.5 -21t8 -34.5v-174q0 -24 -4.5 -43.5t-18 -32t-38 -19t-64.5 -6.5q-12 0 -25.5 1t-24.5 1.5t-18 1z" glyph-name="b" horiz-adv-x="458" unicode="b"/>
<glyph d="M330 406l21 73q-31 14 -64.5 23t-66.5 9q-62 2 -104.5 -23t-64 -68t-21.5 -100v-146q0 -64 24 -104.5t67.5 -60t100.5 -21.5q33 -1 66.5 4t64.5 13l-17 77l-8 -2t-22.5 -4.5t-32.5 -4t-36 -1.5q-27 0 -48.5 6.5t-36.5 19.5t-22.5 34t-7.5 49v146q1 35 14 59t38.5 36 t60.5 10q24 -1 49 -7.5t46 -16.5z" glyph-name="c" horiz-adv-x="384" unicode="c"/>
<glyph d="M416 0v700h-92v-220q-32 15 -65 22.5t-73 7.5q-28 0 -56 -8.5t-50.5 -27t-36 -46.5t-13.5 -68v-200q0 -48 17 -81t46.5 -53t69 -28.5t83.5 -8.5q18 0 37 1t38 1.5t37 2t33 3.5t25 3zM324 388v-309l-4.5 -0.5t-12 -1t-17.5 -1t-20.5 -1.5t-20.5 -1q-39 0 -63.5 6.5t-38 19 t-19 32t-5.5 43.5v174q0 21 8.5 34.5t21.5 21t27 10.5t26 3q39 0 69 -10.5t49 -19.5z" glyph-name="d" horiz-adv-x="460" unicode="d"/>
<glyph d="M126 144v37l267 14v148q0 56 -21.5 93t-61 56t-93.5 19q-52 0 -94 -19t-66.5 -57t-24.5 -95v-205q0 -40 12.5 -68t35.5 -45.5t54 -26t67 -8.5q42 0 87 13t80 35l-34 78q-33 -17 -68 -28.5t-65 -11.5q-17 0 -31 4.5t-23.5 13.5t-15 22t-5.5 31zM301 325v-48l-175 -10v55 q0 32 8.5 54.5t28.5 35t53 12.5q31 2 49 -12t27 -37t9 -50z" glyph-name="e" horiz-adv-x="425" unicode="e"/>
<glyph d="M226 625l15 81q-7 2 -16.5 3.5t-19 2t-17.5 0.5q-28 0 -54.5 -9t-48 -28.5t-33.5 -50t-12 -74.5v-550h95v414h72l24 87h-96v60q0 16 3.5 28.5t10.5 21t17.5 13.5t25.5 5q8 0 17.5 -1t16.5 -3z" glyph-name="f" horiz-adv-x="269" unicode="f"/>
<glyph d="M402 -64v565h-92v-31q-17 14 -36 22.5t-39 13t-40 5.5q-53 1 -89 -19t-55 -57t-19 -89v-169q0 -92 44 -140.5t127 -48.5q16 0 31.5 3t29.5 8t26 12.5t20 16.5v-84q0 -20 -6 -35t-16 -25t-22.5 -15.5t-26.5 -7.5l23 -72q45 4 76.5 20t47.5 47t16 80zM310 389v-238 q0 -16 -7 -30t-20 -25t-31 -17t-42 -7q-28 -1 -47 10.5t-29 32t-10 47.5v178q0 25 8 42.5t21 27.5t29.5 14t33.5 3q13 0 28 -4.5t29 -10t24 -12t13 -11.5z" glyph-name="g" horiz-adv-x="442" unicode="g"/>
<glyph d="M133 474v226h-92v-700h92v400q18 9 34 15t31.5 9t30.5 3q19 0 35.5 -5.5t29 -16t19.5 -26t7 -35.5v-344h92v346q0 37 -8.5 64t-24 46.5t-36.5 31t-45.5 17.5t-51.5 6q-22 0 -43 -5.5t-39 -14t-31 -17.5z" glyph-name="h" horiz-adv-x="445" unicode="h"/>
<glyph d="M42 0h93v501h-93v-501zM89 710q-21 0 -36 -14t-15 -36q0 -21 15 -36t36 -15t36 15t15 36q0 22 -15 36t-36 14z" glyph-name="i" horiz-adv-x="178" unicode="i"/>
<glyph d="M191 -62v563h-163v-77l71 -7v-471q0 -24 -8.5 -41t-24.5 -27.5t-38 -17.5l26 -74q43 4 73.5 23.5t47 52.5t16.5 76zM198 659q0 22 -15 36.5t-36 14.5q-22 0 -37 -14.5t-15 -36.5q0 -20 15 -35t37 -15q21 0 36 15t15 35z" glyph-name="j" horiz-adv-x="239" unicode="j"/>
<glyph d="M231 339l136 118l-66 64l-167 -154v333h-93v-700h93v252l27 24l163 -276h116z" glyph-name="k" horiz-adv-x="459" unicode="k"/>
<glyph d="M41 0h93v700h-93v-700z" glyph-name="l" horiz-adv-x="177" unicode="l"/>
<glyph d="M592 342v-342h91v345q0 45 -13.5 76.5t-36.5 51t-53 28t-64 8.5q-28 0 -54 -7t-48.5 -18.5t-41.5 -25.5q-15 18 -36 29.5t-45 16.5t-50 5q-23 0 -43 -6t-37 -14t-29 -16v28h-93v-501h93v398q17 9 32 15.5t30.5 9.5t30.5 3q18 0 35 -5.5t29 -15.5t19.5 -26t7.5 -37v-342 h90v345q0 14 -1 27t-4 24q18 10 36 17t34 10t29 3q18 0 34.5 -5.5t29.5 -15.5t20.5 -26t7.5 -37z" glyph-name="m" horiz-adv-x="720" unicode="m"/>
<glyph d="M317 343v-344h91v347q0 36 -8.5 63.5t-23.5 46.5t-35.5 31t-45 17.5t-51.5 5.5q-23 0 -44 -6t-39 -14t-30 -16v27h-92v-502h92v400q18 10 34 16t31.5 9t30.5 3q18 0 34.5 -5.5t29 -16t19.5 -26.5t7 -36z" glyph-name="n" horiz-adv-x="445" unicode="n"/>
<glyph d="M400 185v132q0 92 -47 143.5t-135 51.5q-60 0 -102 -22.5t-64 -65.5t-22 -107v-132q0 -52 20 -96.5t62 -71.5t107 -27q91 0 136 53.5t45 141.5zM306 321v-145q0 -28 -9 -50t-28.5 -34.5t-50.5 -12.5t-52 13t-31.5 35.5t-10.5 48.5v145q0 33 11 55t31.5 33.5t51.5 11.5 q30 0 49.5 -11.5t29 -34t9.5 -54.5z" glyph-name="o" horiz-adv-x="432" unicode="o"/>
<glyph d="M410 177v169q0 52 -18.5 89t-54.5 57t-89 19q-20 -1 -42.5 -6.5t-42 -15t-30.5 -19.5v31h-93v-692l93 -22v241q12 -11 29 -20.5t37 -14.5t41 -5q83 0 126.5 48.5t43.5 140.5zM317 340v-178q0 -28 -9.5 -48.5t-27 -31t-44.5 -10.5q-18 0 -36 5t-33 14.5t-24.5 24.5 t-9.5 35v238q8 8 23 16.5t34 15t37 6.5q17 1 33.5 -3t29 -14t20 -27.5t7.5 -42.5z" glyph-name="p" horiz-adv-x="443" unicode="p"/>
<glyph d="M310 29v-220l92 -22v714h-92v-30q-17 13 -36 22t-38.5 13.5t-39.5 5.5q-53 1 -89.5 -19t-55.5 -57t-19 -90v-169q0 -61 19.5 -103t58 -63.5t93.5 -21.5q21 0 41 5t37 14.5t29 20.5zM310 390v-238q0 -17 -7 -31t-20 -24.5t-31 -16.5t-42 -7q-29 0 -48 11.5t-28.5 32.5 t-9.5 47v177q0 25 8 42.5t21.5 27.5t29.5 14t32 3q14 0 29 -4t28.5 -9.5t23.5 -12.5t14 -12z" glyph-name="q" horiz-adv-x="442" unicode="q"/>
<glyph d="M323 427l12 77q-10 4 -28 7.5t-39 3.5q-40 -1 -73.5 -11t-62.5 -27v24h-93v-501h93v396q14 8 31.5 14.5t36 11.5t38 7.5t37.5 2.5q23 0 35.5 -2.5z" glyph-name="r" horiz-adv-x="360" unicode="r"/>
<glyph d="M318 404l30 74q-19 13 -41.5 20.5t-45 11t-44.5 3.5q-30 0 -60 -8t-54 -25.5t-38 -43t-14 -61.5q0 -33 13.5 -57t35.5 -41t48.5 -29t53 -22.5t48.5 -22.5t35.5 -27t13.5 -38q0 -18 -8.5 -31t-22 -21.5t-29.5 -12t-31 -3.5q-24 0 -46.5 7t-42.5 19.5t-39 29.5l-53 -57 q35 -39 85 -62t104 -23q34 0 66 10t57 29.5t40 48.5t15 68q0 37 -13.5 63t-35.5 44t-48.5 31.5t-53.5 23.5t-49 20.5t-35.5 23.5t-13.5 31q0 15 8 24t20.5 14.5t26.5 8t27 2.5q17 0 33 -3t31 -7.5t27 -11.5z" glyph-name="s" horiz-adv-x="424" unicode="s"/>
<glyph d="M133 132v283h81l23 85h-104v200h-93v-568q0 -66 34 -102t103 -43l27 73q-22 3 -38 10.5t-24.5 23t-8.5 38.5z" glyph-name="t" horiz-adv-x="265" unicode="t"/>
<glyph d="M314 33v-33h92v501h-92v-326q0 -21 -8 -38.5t-22 -30.5t-33 -20.5t-40 -7.5q-26 0 -44 8.5t-27.5 27.5t-9.5 50v337h-94v-343q0 -38 8.5 -65.5t24 -47t37 -31t46 -17t50.5 -5.5q22 0 44.5 6t40.5 15.5t27 19.5z" glyph-name="u" horiz-adv-x="446" unicode="u"/>
<glyph d="M20 501l158 -501h96l157 501h-99l-105 -368l-107 368h-100z" glyph-name="v" horiz-adv-x="456" unicode="v"/>
<glyph d="M406 500h-89l-90 -351l-107 351h-100l159 -500h98l82 314l81 -314h97l160 500h-99l-100 -351z" glyph-name="w" horiz-adv-x="721" unicode="w"/>
<glyph d="M245 338l-99 163h-115l157 -252l-157 -249h115l99 160l99 -160h110l-153 250l158 251h-112z" glyph-name="x" horiz-adv-x="488" unicode="x"/>
<glyph d="M449 446l-30 66q-37 -3 -60.5 -20t-34 -42t-10.5 -52v-222q0 -20 -7 -38t-20 -31t-30.5 -21t-37.5 -8q-18 0 -34.5 5t-28.5 15.5t-19.5 26.5t-7.5 37v340h-93v-343q0 -47 12.5 -78.5t36 -51t53 -28t63.5 -8.5q23 0 45 6t40.5 15.5t27.5 20.5v-87q0 -16 -4.5 -30.5 t-13.5 -26.5t-21.5 -19.5t-28.5 -10.5l25 -73q44 4 74.5 22.5t45.5 51t15 78.5v438q0 28 10 45t33 23z" glyph-name="y" horiz-adv-x="479" unicode="y"/>
<glyph d="M387 501h-346v-84l230 -1l-239 -329v-87h369v87l-253 1l239 330v83z" glyph-name="z" horiz-adv-x="433" unicode="z"/>
<glyph d="M198 518v113q0 23 4 41t9.5 31.5t13 22.5t16 15.5t16.5 10.5l-41 72q-1 -1 -12.5 -6t-27.5 -16.5t-32 -33t-26.5 -55.5t-10.5 -82v-113q0 -22 -3 -42t-9 -40q-6 -19 -20.5 -37.5t-38.5 -37.5l-10 -8l10 -7q24 -18 38.5 -37t20.5 -38t9 -39.5t3 -41.5v-114q0 -48 10.5 -82 t26 -55.5t31.5 -34t27.5 -17.5t13.5 -5l41 73q-8 4 -16.5 10.5t-16 15.5t-13 22t-9.5 31t-4 42v114q0 21 -2.5 42t-7.5 42q-10 41 -56 79q23 20 37 40t19 40q5 21 7.5 42t2.5 43z" glyph-name="braceleft" horiz-adv-x="281" unicode="{"/>
<glyph d="M42 -115h93v934h-93v-934z" glyph-name="bar" horiz-adv-x="178" unicode="|"/>
<glyph d="M66 824l-41 -72q8 -4 16.5 -10.5t16 -15.5t14 -22t9.5 -31t3 -42v-113q0 -28 4 -56.5t18 -55.5t45 -53q-31 -25 -45 -52t-18 -54.5t-4 -56.5v-114q0 -24 -3 -42t-9.5 -31t-14 -22t-16 -15.5t-16.5 -10.5l41 -73q2 0 13.5 5t27.5 17.5t32 34t27 55.5t11 82v114 q0 28 4 54.5t19 52t46 49.5l11 7l-11 8q-32 25 -46.5 50.5t-18.5 52t-4 54.5v113q0 48 -11 81.5t-27 55.5t-32.5 34t-28 16.5t-12.5 5.5z" glyph-name="braceright" horiz-adv-x="286" unicode="}"/>
<glyph d="M291 302l-30 51q-16 -13 -31.5 -19t-31.5 -7q-21 0 -42 8t-42.5 16t-46.5 8t-47.5 -11t-43.5 -30l30 -51q18 13 34.5 19t31.5 5q22 0 42.5 -8t41.5 -16t42 -8q27 0 50 12t43 31z" glyph-name="asciitilde" unicode="~"/>
<glyph glyph-name="uni00A0" horiz-adv-x="280" unicode=" "/>
<glyph d="M140 57l-18 533h-67l-16 -532q0 -29 12.5 -43.5t36.5 -14.5q26 0 39 14.5t13 42.5zM140 669q0 22 -14.5 36.5t-35.5 14.5t-36.5 -14.5t-15.5 -36.5q0 -21 15.5 -35.5t36.5 -14.5t35.5 14.5t14.5 35.5z" glyph-name="exclamdown" horiz-adv-x="179" unicode="¡"/>
<glyph d="M192 -114h76v738h-76v-738zM330 406l21 73q-31 14 -64.5 23t-66.5 9q-62 2 -104.5 -23t-64 -68t-21.5 -100v-146q0 -64 24 -104.5t67.5 -60t100.5 -21.5q33 -1 66.5 4t64.5 13l-17 77l-8 -2t-22.5 -4.5t-32.5 -4t-36 -1.5q-27 0 -48.5 6.5t-36.5 19.5t-22.5 34t-7.5 49 v146q1 35 14 59t38.5 36t60.5 10q24 -1 49 -7.5t46 -16.5z" glyph-name="cent" horiz-adv-x="384" unicode="¢"/>
<glyph d="M129 85h-94v-85h361v85h-110q27 20 41 55.5t15 67.5q1 28 -7.5 55.5t-23.5 52.5l-14 25h99v87h-160l-32 42q-13 18 -23.5 35t-16 33t-3.5 30q2 17 11.5 28.5t23.5 18t31 7.5q30 1 56.5 -6t49.5 -19l29 76q-18 12 -40.5 20t-45.5 12t-43 4q-33 0 -63 -9t-54 -26.5 t-38.5 -43t-15.5 -59.5q-1 -32 12 -62t34 -59l14 -22h-87v-87h149l21 -28q11 -16 20 -34t14.5 -36.5t5.5 -37.5q1 -26 -8 -48.5t-24.5 -38.5t-36.5 -24.5t-47 -8.5z" glyph-name="sterling" horiz-adv-x="431" unicode="£"/>
<glyph d="M369 355l86 86l-55 54l-85 -87q-15 10 -33.5 15.5t-37.5 5.5q-20 0 -38.5 -5t-34.5 -16l-84 87l-55 -54l86 -86q-9 -14 -14.5 -33t-5.5 -38q0 -21 5.5 -38.5t14.5 -33.5l-86 -85l55 -55l85 86q15 -9 33.5 -14.5t38.5 -5.5q19 0 37.5 5.5t32.5 14.5l86 -86l55 55l-86 85 q9 16 14.5 33.5t5.5 38.5q0 20 -5.5 38t-14.5 33zM244 218q-18 0 -33 8.5t-24 24t-9 33.5q0 19 9 33.5t24 23t33 8.5t33 -8.5t23.5 -23t8.5 -33.5q0 -18 -8.5 -33.5t-23.5 -24t-33 -8.5z" glyph-name="currency" horiz-adv-x="488" unicode="¤"/>
<glyph d="M303 325l191 375h-101l-137 -275l-136 275h-99l189 -376v-324h93v325zM97 197h321v89h-321v-89zM97 61h321v88h-321v-88z" glyph-name="yen" horiz-adv-x="517" unicode="¥"/>
<glyph d="M318 591l30 74q-20 13 -42.5 20.5t-45 11t-43.5 3.5q-31 0 -60.5 -8t-53.5 -25.5t-38 -43t-14 -61.5q0 -31 11.5 -53t29.5 -39q-19 -16 -30 -40t-11 -55q0 -33 13.5 -57t35.5 -41t48.5 -29t53 -22.5t48.5 -22.5t35.5 -27t13.5 -38q0 -18 -8.5 -31t-22 -21.5t-29.5 -12 t-31 -3.5q-24 0 -46.5 7t-42.5 19.5t-39 29.5l-53 -57q35 -39 85 -62t104 -23q34 0 66 10t57 29.5t40 48.5t15 68q0 30 -9 52.5t-24 39.5q16 18 24.5 42t8.5 53q0 37 -13.5 63t-35.5 44t-49 31.5t-53.5 23.5t-49 20.5t-35.5 23.5t-13 31q0 15 8 24t20.5 14.5t26.5 8t27 2.5 q16 0 32.5 -3t31.5 -7.5t27 -11.5zM282 285q-19 10 -38.5 17.5t-37.5 15t-31.5 16t-21.5 19t-8 24.5q0 11 4 19.5t11.5 15t15.5 11.5q18 -8 36 -15.5t33.5 -15.5t27.5 -17.5t19 -21.5t7 -28q0 -12 -4.5 -22.5t-12.5 -17.5z" glyph-name="section" horiz-adv-x="442" unicode="§"/>
<glyph d="M54 760q-21 0 -36 -15t-15 -36t15 -36t36 -15q22 0 36.5 15t14.5 36t-14.5 36t-36.5 15zM213 760q-21 0 -36 -15t-15 -36t15 -36t36 -15t36 15t15 36t-15 36t-36 15z" glyph-name="dieresis" unicode="¨"/>
<glyph d="M723 187v140q0 67 -25.5 118t-72 85t-109.5 51t-139 17t-138.5 -17t-109 -51t-72 -85t-25.5 -118v-140q0 -68 25.5 -119t72 -85.5t109 -51.5t138.5 -17t139 17t109.5 51.5t72 85.5t25.5 119zM635 294v-75q0 -60 -15 -102t-46 -68t-80 -37.5t-117 -11.5t-116.5 11.5 t-79.5 37t-46 67.5t-15 103v75q0 65 15 108t46 67.5t79.5 34t116.5 9.5t117 -9.5t80 -33.5t46 -67t15 -109zM509 349l24 73q-30 15 -66.5 24.5t-74.5 9.5q-50 0 -87.5 -16t-62.5 -45q-23 -26 -34.5 -63t-11.5 -82q0 -53 17 -92.5t49 -63.5q25 -18 58 -27.5t74 -9.5 q39 0 80.5 9.5t83.5 25.5l-24 78q-7 -3 -21.5 -7t-33.5 -8t-40.5 -6.5t-42.5 -2.5q-25 0 -44 5t-32 16q-16 13 -23.5 35t-7.5 54q0 28 7 48.5t21 35.5q15 14 38.5 21.5t52.5 7.5q12 0 25 -1t26 -3.5t25.5 -6.5t24.5 -9z" glyph-name="copyright" horiz-adv-x="755" unicode="©"/>
<glyph d="M295 391v21.5v38.5v44v39v22q0 46 -9.5 78.5t-34.5 50.5q-15 14 -35.5 19.5t-43 6.5t-43.5 -1l-8 -55q18 1 32.5 0.5t24.5 -3.5q24 -4 32.5 -13.5t8.5 -33.5q-24 14 -46 20.5t-42 6.5q-34 1 -57.5 -14.5t-35.5 -41t-13 -56.5q0 -42 10.5 -69t30.5 -42.5t47.5 -22.5 t60.5 -7q26 0 57 4t64 8zM218 538v-87q-2 0 -9 -1t-17 -1h-19.5t-18.5 2q-15 3 -28 9t-21 18t-8 33q0 17 5 29.5t14 19t23 6.5q19 0 40 -8.5t39 -19.5z" glyph-name="ordfeminine" horiz-adv-x="330" unicode="ª"/>
<glyph d="M370 268l129 -131l-59 -57l-188 188l188 188l60 -61zM150 268l128 -131l-59 -57l-187 188l187 188l61 -61z" glyph-name="guillemotleft" horiz-adv-x="555" unicode="«"/>
<glyph d="M35 323h320v91h-320v-91z" glyph-name="sfthyphen" horiz-adv-x="393" unicode="­"/>
<glyph d="M723 187v140q0 67 -25.5 118t-72 85t-110 51t-139.5 17q-75 0 -138 -17t-109 -51t-71.5 -85t-25.5 -118v-140q0 -68 25.5 -119t71.5 -85.5t109 -51.5t138 -17q76 0 139.5 17t110 51.5t72 85.5t25.5 119zM634 293v-74q0 -65 -14.5 -108t-45.5 -67.5t-80.5 -34t-117.5 -9.5 t-116 10t-79 34.5t-46 67t-15 107.5v74q0 66 15 108.5t46 67t79 34.5t116 10t117.5 -9.5t80.5 -34t45.5 -67.5t14.5 -109zM414 444h-199v-384h91v85h99l40 -85h106l-57 103q32 16 46 49.5t13 80.5q0 44 -9.5 73t-27.5 46t-43.5 24.5t-58.5 7.5zM409 234h-103v118h103 q17 0 29 -4t18.5 -17t6.5 -38q0 -36 -15 -47.5t-39 -11.5z" glyph-name="registered" horiz-adv-x="755" unicode="®"/>
<glyph d="M244 699h-222v-79h222v79z" glyph-name="overscore" unicode="¯"/>
<glyph d="M321 566q0 40 -19.5 73t-52.5 52.5t-74 19.5q-40 0 -73.5 -19.5t-53.5 -52.5t-20 -73t20 -73t53.5 -53t73.5 -20q41 0 74 20t52.5 53t19.5 73zM175 633q18 0 33 -9t24.5 -24.5t9.5 -33.5t-9.5 -33t-24.5 -24t-33 -9t-33.5 9t-24.5 24t-9 33t9 33.5t24.5 24.5t33.5 9z" glyph-name="degree" horiz-adv-x="350" unicode="°"/>
<glyph d="M34 359h114v-112h-115v-86h320v86h-112v112h113v89h-113v118h-93v-118h-114v-89z" glyph-name="plusminus" horiz-adv-x="388" unicode="±"/>
<glyph d="M204 677q8 11 10.5 22.5t-1.5 22.5t-16 17q-11 7 -23.5 5t-21.5 -10t-12 -21l-33 -113h41z" glyph-name="acute" unicode="´"/>
<glyph d="M409 107v404l-93 -13v-341q0 -25 -10 -43t-29 -27.5t-46 -10.5q-26 -2 -48.5 8t-36.5 28t-14 41v348h-92v-691l92 -24v248q4 -6 13 -13.5t22.5 -14.5t30.5 -11.5t37 -4.5t39 5.5t33.5 15t20.5 20.5q5 -9 11 -16t12 -11t10 -7l72 28q-1 2 -7 10t-11.5 26t-5.5 46z" glyph-name="mu" horiz-adv-x="465" unicode="µ"/>
<glyph d="M241 213h132v-212h92v610h59v-610h92v701h-375q-42 0 -79.5 -11.5t-67 -38.5t-46.5 -73.5t-17 -117.5q0 -74 16.5 -123t45.5 -76t67 -38t81 -11zM267 611h106v-310h-106q-34 0 -61 5.5t-45.5 21.5t-28 48t-9.5 85q0 66 16.5 97.5t49 42t78.5 10.5z" glyph-name="paragraph" horiz-adv-x="659" unicode="¶"/>
<glyph d="M86 348q-21 0 -36 -14.5t-15 -36.5q0 -21 15 -36t36 -15t36.5 15t15.5 36q0 22 -15.5 36.5t-36.5 14.5z" glyph-name="periodcentered" horiz-adv-x="173" unicode="·"/>
<glyph d="M171 3h-61l-45 -73l16 -36q19 2 34.5 3.5t28.5 2.5t23 1q21 0 32 -8.5t11 -26.5q0 -12 -6 -20.5t-17 -12.5t-27 -4q-18 0 -38 2t-36 4.5t-21 3.5l-13 -59q1 0 16.5 -3t39.5 -6t47 -3q56 0 86 27t30 74q0 38 -25.5 65.5t-72.5 26.5q-5 0 -10.5 0.5t-16.5 -0.5z" glyph-name="cedilla" unicode="¸"/>
<glyph d="M304 503v84q0 59 -34 91.5t-99 32.5q-66 0 -101.5 -31.5t-35.5 -92.5v-84q0 -33 15 -61.5t45 -45.5t78 -17q67 0 99.5 34t32.5 90zM228 582v-77q0 -24 -13 -39.5t-44 -15.5q-20 0 -33.5 7.5t-20 20t-6.5 27.5v77q0 28 15 42.5t45 14.5q20 0 32.5 -7t18.5 -19.5t6 -30.5z " glyph-name="ordmasculine" horiz-adv-x="339" unicode="º"/>
<glyph d="M162 268l-129 -131l59 -57l188 188l-188 188l-60 -61zM382 268l-128 -131l59 -57l187 188l-187 188l-61 -61z" glyph-name="guillemotright" horiz-adv-x="530" unicode="»"/>
<glyph d="M392 162h-93q-1 -22 -8 -39t-19.5 -28.5t-28 -17.5t-34.5 -5q-21 1 -41 12t-33 31t-13 50q0 26 10.5 47.5t27.5 41t34 41.5q14 17 27.5 36.5t25 42t18 49.5t6.5 59v93h-90v-89q0 -29 -4.5 -50t-13.5 -37.5t-22 -33t-32 -37.5q-22 -24 -40.5 -48.5t-29 -52t-10.5 -61.5 q0 -43 15.5 -76.5t42 -56.5t59 -35t66.5 -13q40 -1 72.5 11.5t56.5 35.5t37.5 56t13.5 74zM226 708q-21 0 -36 -14.5t-15 -36.5q0 -21 15 -36.5t36 -15.5t35.5 15.5t14.5 36.5q0 22 -14.5 36.5t-35.5 14.5z" glyph-name="questiondown" horiz-adv-x="422" unicode="¿"/>
<glyph d="M264 865q-3 12 -12.5 20.5t-22 11t-25.5 -5.5q-12 -6 -15.5 -17.5t-0.5 -24t10 -21.5l58 -77h41zM524 0l-192 700h-121l-188 -700h103l53 204h183l54 -204h108zM202 301l69 275l70 -275h-139z" glyph-name="Agrave" horiz-adv-x="546" unicode="À"/>
<glyph d="M349 828q8 11 10.5 22.5t-1.5 22.5t-16 17q-11 7 -23.5 5t-21.5 -10t-12 -21l-33 -113h41zM524 0l-192 700h-121l-188 -700h103l53 204h183l54 -204h108zM202 301l69 275l70 -275h-139z" glyph-name="Aacute" horiz-adv-x="546" unicode="Á"/>
<glyph d="M403 788l-128 127l-133 -128l48 -47l85 85l79 -83zM524 0l-192 700h-121l-188 -700h103l53 204h183l54 -204h108zM202 301l69 275l70 -275h-139z" glyph-name="Acircumflex" horiz-adv-x="546" unicode="Â"/>
<glyph d="M339 863v-11q0 -10 -2 -20t-13 -10q-8 0 -17.5 6t-13.5 8q-10 7 -17.5 12t-17.5 9q-16 8 -34.5 8.5t-35.5 -6.5q-16 -7 -26 -19.5t-14 -28.5t-4 -34v-11h61v11q0 9 1.5 17.5t10.5 9.5q6 2 14 -1t15 -8q6 -3 17 -10t17 -10q10 -5 21 -9.5t23 -4.5q39 0 57.5 28t18.5 63v11 h-61zM524 0l-192 700h-121l-188 -700h103l53 204h183l54 -204h108zM202 301l69 275l70 -275h-139z" glyph-name="Atilde" horiz-adv-x="546" unicode="Ã"/>
<glyph d="M193 870q-21 0 -36 -15t-15 -36t15 -36t36 -15q22 0 36.5 15t14.5 36t-14.5 36t-36.5 15zM352 870q-21 0 -36 -15t-15 -36t15 -36t36 -15t36 15t15 36t-15 36t-36 15zM524 0l-192 700h-121l-188 -700h103l53 204h183l54 -204h108zM202 301l69 275l70 -275h-139z" glyph-name="Adieresis" horiz-adv-x="546" unicode="Ä"/>
<glyph d="M273 889q-31 0 -57.5 -15t-42 -40.5t-15.5 -57.5t15.5 -58t42 -41t57.5 -15q32 0 57.5 15t41 41t15.5 58t-15.5 57.5t-41 40.5t-57.5 15zM273 819q18 0 32 -13q12 -12 12 -30q0 -10 -4 -18.5t-10 -14.5t-13.5 -9t-16.5 -3t-17 3.5t-14 9.5t-9.5 14t-3.5 18q0 9 3.5 17 t9.5 14q7 6 14.5 9t16.5 3zM524 0l-192 700h-121l-188 -700h103l53 204h183l54 -204h108zM202 301l69 275l70 -275h-139z" glyph-name="Aring" horiz-adv-x="546" unicode="Å"/>
<glyph d="M387 0h334v84h-243v239h137l29 91h-166v195h244v91h-429l-272 -700h106l80 211h180v-211zM240 301l115 308h31v-308h-146z" glyph-name="AE" horiz-adv-x="756" unicode="Æ"/>
<glyph d="M250 3h-61l-45 -73l16 -36q19 2 34.5 3.5t28.5 2.5t23 1q21 0 32 -8.5t11 -26.5q0 -12 -6 -20.5t-17 -12.5t-27 -4q-18 0 -38 2t-36 4.5t-21 3.5l-13 -59q1 0 16.5 -3t39.5 -6t47 -3q56 0 86 27t30 74q0 38 -25.5 65.5t-72.5 26.5q-5 0 -10.5 0.5t-16.5 -0.5zM347 602 l25 75q-34 18 -70 26t-73 8q-55 0 -98.5 -22t-69.5 -66.5t-26 -111.5v-327q0 -64 24 -108t68.5 -65.5t106.5 -21.5q38 0 79 9t84 25l-15 85q-13 -3 -36.5 -10t-51 -12t-54.5 -5q-37 0 -61.5 10.5t-37.5 33.5t-13 61v328q0 38 14.5 61.5t41 34.5t64.5 11q24 0 50.5 -5 t48.5 -14z" glyph-name="Ccedilla" horiz-adv-x="426" unicode="Ç"/>
<glyph d="M197 865q-3 12 -12.5 20.5t-22 11t-25.5 -5.5q-12 -6 -15.5 -17.5t-0.5 -24t10 -21.5l58 -77h41zM41 0h333v84h-240v241h128l27 88h-155v196h242v91h-335v-700z" glyph-name="Egrave" horiz-adv-x="409" unicode="È"/>
<glyph d="M275 827q8 11 10.5 22.5t-1.5 22.5t-16 17q-11 7 -23.5 5t-21.5 -10t-12 -21l-33 -113h41zM41 0h333v84h-240v241h128l27 88h-155v196h242v91h-335v-700z" glyph-name="Eacute" horiz-adv-x="409" unicode="É"/>
<glyph d="M335 788l-128 127l-133 -128l48 -47l85 85l79 -83zM41 0h333v84h-240v241h128l27 88h-155v196h242v91h-335v-700z" glyph-name="Ecircumflex" horiz-adv-x="409" unicode="Ê"/>
<glyph d="M125 870q-21 0 -36 -15t-15 -36t15 -36t36 -15q22 0 36.5 15t14.5 36t-14.5 36t-36.5 15zM284 870q-21 0 -36 -15t-15 -36t15 -36t36 -15t36 15t15 36t-15 36t-36 15zM41 0h333v84h-240v241h128l27 88h-155v196h242v91h-335v-700z" glyph-name="Edieresis" horiz-adv-x="409" unicode="Ë"/>
<glyph d="M117 866q-3 12 -12.5 20.5t-22 11t-25.5 -5.5q-12 -6 -15.5 -17.5t-0.5 -24t10 -21.5l58 -77h41zM20 614l67 -2v-612h93v700h-160v-86z" glyph-name="Igrave" horiz-adv-x="222" unicode="Ì"/>
<glyph d="M205 827q8 11 10.5 22.5t-1.5 22.5t-16 17q-11 7 -23.5 5t-21.5 -10t-12 -21l-33 -113h41zM20 614l67 -2v-612h93v700h-160v-86z" glyph-name="Iacute" horiz-adv-x="222" unicode="Í"/>
<glyph d="M252 788l-128 127l-133 -128l48 -47l85 85l79 -83zM20 614l67 -2v-612h93v700h-160v-86z" glyph-name="Icircumflex" horiz-adv-x="222" unicode="Î"/>
<glyph d="M52 870q-21 0 -36 -15t-15 -36t15 -36t36 -15q22 0 36.5 15t14.5 36t-14.5 36t-36.5 15zM211 870q-21 0 -36 -15t-15 -36t15 -36t36 -15t36 15t15 36t-15 36t-36 15zM20 614l67 -2v-612h93v700h-160v-86z" glyph-name="Idieresis" horiz-adv-x="222" unicode="Ï"/>
<glyph d="M104 325h158l27 88h-185v-88zM230 700h-189v-700h209q71 0 118.5 23.5t71 69.5t23.5 112v270q0 71 -28 121t-80 77t-125 27zM234 85h-100v524h106q46 0 74 -15t42 -42t14 -65v-292q0 -22 -5.5 -41.5t-20 -35t-41 -24.5t-69.5 -9z" glyph-name="Eth" horiz-adv-x="498" unicode="Ð"/>
<glyph d="M355 863v-11q0 -10 -2 -20t-13 -10q-8 0 -17.5 6t-13.5 8q-10 7 -17.5 12t-17.5 9q-16 8 -34.5 8.5t-35.5 -6.5q-16 -7 -26 -19.5t-14 -28.5t-4 -34v-11h61v11q0 9 1.5 17.5t10.5 9.5q6 2 14 -1t15 -8q6 -3 17 -10t17 -10q10 -5 21 -9.5t23 -4.5q39 0 57.5 28t18.5 63v11 h-61zM535 700h-94v-525l-307 525h-93v-700h93v515l307 -515h94v700z" glyph-name="Ntilde" horiz-adv-x="578" unicode="Ñ"/>
<glyph d="M239 865q-3 12 -12.5 20.5t-22 11t-25.5 -5.5q-12 -6 -15.5 -17.5t-0.5 -24t10 -21.5l58 -77h41zM35 508v-322q0 -65 28.5 -109t76.5 -66t107 -22q63 0 110.5 23.5t73.5 68t26 105.5v321q0 98 -55 154t-154 56t-156 -53.5t-57 -155.5zM128 200v290q0 45 13.5 74t39.5 43 t65 14q41 0 67.5 -14.5t39 -43t12.5 -73.5v-290q0 -37 -15 -63.5t-41 -40.5t-63 -14q-36 0 -62.5 14t-41 40t-14.5 64z" glyph-name="Ograve" horiz-adv-x="494" unicode="Ò"/>
<glyph d="M317 828q8 11 10.5 22.5t-1.5 22.5t-16 17q-11 7 -23.5 5t-21.5 -10t-12 -21l-33 -113h41zM35 508v-322q0 -65 28.5 -109t76.5 -66t107 -22q63 0 110.5 23.5t73.5 68t26 105.5v321q0 98 -55 154t-154 56t-156 -53.5t-57 -155.5zM128 200v290q0 45 13.5 74t39.5 43t65 14 q41 0 67.5 -14.5t39 -43t12.5 -73.5v-290q0 -37 -15 -63.5t-41 -40.5t-63 -14q-36 0 -62.5 14t-41 40t-14.5 64z" glyph-name="Oacute" horiz-adv-x="494" unicode="Ó"/>
<glyph d="M376 788l-128 127l-133 -128l48 -47l85 85l79 -83zM35 508v-322q0 -65 28.5 -109t76.5 -66t107 -22q63 0 110.5 23.5t73.5 68t26 105.5v321q0 98 -55 154t-154 56t-156 -53.5t-57 -155.5zM128 200v290q0 45 13.5 74t39.5 43t65 14q41 0 67.5 -14.5t39 -43t12.5 -73.5 v-290q0 -37 -15 -63.5t-41 -40.5t-63 -14q-36 0 -62.5 14t-41 40t-14.5 64z" glyph-name="Ocircumflex" horiz-adv-x="494" unicode="Ô"/>
<glyph d="M314 863v-11q0 -10 -2 -20t-13 -10q-8 0 -17.5 6t-13.5 8q-10 7 -17.5 12t-17.5 9q-16 8 -34.5 8.5t-35.5 -6.5q-16 -7 -26 -19.5t-14 -28.5t-4 -34v-11h61v11q0 9 1.5 17.5t10.5 9.5q6 2 14 -1t15 -8q6 -3 17 -10t17 -10q10 -5 21 -9.5t23 -4.5q39 0 57.5 28t18.5 63v11 h-61zM35 508v-322q0 -65 28.5 -109t76.5 -66t107 -22q63 0 110.5 23.5t73.5 68t26 105.5v321q0 98 -55 154t-154 56t-156 -53.5t-57 -155.5zM128 200v290q0 45 13.5 74t39.5 43t65 14q41 0 67.5 -14.5t39 -43t12.5 -73.5v-290q0 -37 -15 -63.5t-41 -40.5t-63 -14 q-36 0 -62.5 14t-41 40t-14.5 64z" glyph-name="Otilde" horiz-adv-x="494" unicode="Õ"/>
<glyph d="M167 870q-21 0 -36 -15t-15 -36t15 -36t36 -15q22 0 36.5 15t14.5 36t-14.5 36t-36.5 15zM326 870q-21 0 -36 -15t-15 -36t15 -36t36 -15t36 15t15 36t-15 36t-36 15zM35 508v-322q0 -65 28.5 -109t76.5 -66t107 -22q63 0 110.5 23.5t73.5 68t26 105.5v321q0 98 -55 154 t-154 56t-156 -53.5t-57 -155.5zM128 200v290q0 45 13.5 74t39.5 43t65 14q41 0 67.5 -14.5t39 -43t12.5 -73.5v-290q0 -37 -15 -63.5t-41 -40.5t-63 -14q-36 0 -62.5 14t-41 40t-14.5 64z" glyph-name="Odieresis" horiz-adv-x="494" unicode="Ö"/>
<glyph d="M183 395l-91 110l-62 -51l102 -121l-100 -118l60 -54l91 110l92 -110l60 54l-100 118l101 123l-62 50z" glyph-name="multiply" horiz-adv-x="367" unicode="×"/>
<glyph d="M33 0h85l357 701h-85zM35 508v-322q0 -65 28.5 -109t76.5 -66t107 -22q63 0 110.5 23.5t73.5 68t26 105.5v321q0 98 -55 154t-154 56t-156 -53.5t-57 -155.5zM128 200v290q0 45 13.5 74t39.5 43t65 14q41 0 67.5 -14.5t39 -43t12.5 -73.5v-290q0 -37 -15 -63.5t-41 -40.5 t-63 -14q-36 0 -62.5 14t-41 40t-14.5 64z" glyph-name="Oslash" horiz-adv-x="494" unicode="Ø"/>
<glyph d="M242 865q-3 12 -12.5 20.5t-22 11t-25.5 -5.5q-12 -6 -15.5 -17.5t-0.5 -24t10 -21.5l58 -77h41zM460 186v514h-93v-500q0 -36 -14.5 -62.5t-40.5 -41t-63 -14.5t-63 13.5t-40.5 39.5t-14.5 64v501h-92v-514q0 -64 26.5 -108t74.5 -66.5t110 -22.5t109 22.5t74 66.5 t27 108z" glyph-name="Ugrave" horiz-adv-x="500" unicode="Ù"/>
<glyph d="M319 827q8 11 10.5 22.5t-1.5 22.5t-16 17q-11 7 -23.5 5t-21.5 -10t-12 -21l-33 -113h41zM460 186v514h-93v-500q0 -36 -14.5 -62.5t-40.5 -41t-63 -14.5t-63 13.5t-40.5 39.5t-14.5 64v501h-92v-514q0 -64 26.5 -108t74.5 -66.5t110 -22.5t109 22.5t74 66.5t27 108z " glyph-name="Uacute" horiz-adv-x="500" unicode="Ú"/>
<glyph d="M380 788l-128 127l-133 -128l48 -47l85 85l79 -83zM460 186v514h-93v-500q0 -36 -14.5 -62.5t-40.5 -41t-63 -14.5t-63 13.5t-40.5 39.5t-14.5 64v501h-92v-514q0 -64 26.5 -108t74.5 -66.5t110 -22.5t109 22.5t74 66.5t27 108z" glyph-name="Ucircumflex" horiz-adv-x="500" unicode="Û"/>
<glyph d="M169 870q-21 0 -36 -15t-15 -36t15 -36t36 -15q22 0 36.5 15t14.5 36t-14.5 36t-36.5 15zM328 870q-21 0 -36 -15t-15 -36t15 -36t36 -15t36 15t15 36t-15 36t-36 15zM460 186v514h-93v-500q0 -36 -14.5 -62.5t-40.5 -41t-63 -14.5t-63 13.5t-40.5 39.5t-14.5 64v501h-92 v-514q0 -64 26.5 -108t74.5 -66.5t110 -22.5t109 22.5t74 66.5t27 108z" glyph-name="Udieresis" horiz-adv-x="500" unicode="Ü"/>
<glyph d="M328 827q8 11 10.5 22.5t-1.5 22.5t-16 17q-11 7 -23.5 5t-21.5 -10t-12 -21l-33 -113h41zM477 157v543h-93v-288q0 -26 -10.5 -46.5t-28.5 -35t-40.5 -22t-45.5 -7.5q-45 0 -75 15t-45 44.5t-15 72.5v267h-93v-272q0 -66 26 -113t74 -73t112 -26q26 0 51.5 4t48.5 14 t41 27v-100q0 -26 -5 -45t-14 -31.5t-22.5 -20t-29.5 -11.5l28 -68q71 8 103.5 51.5t32.5 120.5z" glyph-name="Yacute" horiz-adv-x="518" unicode="Ý"/>
<glyph d="M265 613h-131v87h-93v-700h93v125h131q44 0 82 11t67.5 38t46 75.5t16.5 123.5q0 71 -17 117.5t-46.5 73.5t-68 38t-80.5 11zM134 214v308h105q36 0 63 -5t45 -20.5t27.5 -45t9.5 -78.5q0 -53 -9.5 -84.5t-27.5 -48t-45 -21.5t-63 -5h-105z" glyph-name="Thorn" horiz-adv-x="508" unicode="Þ"/>
<glyph d="M133 0v518q0 32 7 53t22.5 32t37.5 11q17 0 28.5 -7t17.5 -18.5t7 -24.5q0 -13 -6 -26t-17.5 -21.5t-30.5 -8.5q-11 -18 -15.5 -35.5t-4.5 -34.5q1 -29 15.5 -54t37 -48t47 -44.5t46.5 -43.5t36 -46.5t14 -51.5q0 -17 -6 -31t-17 -23t-24.5 -14.5t-28.5 -5.5 q-12 0 -24.5 1.5t-25.5 5t-26 10t-27 16.5l-37 -72q20 -16 43 -27t49 -16.5t53 -5.5q34 1 64.5 12t54 31.5t36.5 49.5t13 66q0 38 -14 69.5t-36 57.5t-47.5 48.5t-48 42.5t-37.5 39t-16 39q0 9 3 17.5t8 17.5h3.5h8h8h3.5q17 16 25.5 36.5t9.5 42.5t-4 42q-6 30 -27 53 t-51.5 36.5t-66.5 12.5q-31 0 -59 -10t-49 -30t-33 -50.5t-12 -72.5v-538h93z" glyph-name="germandbls" horiz-adv-x="500" unicode="ß"/>
<glyph d="M217 668q-3 12 -12.5 20.5t-22 11t-25.5 -5.5q-12 -6 -15.5 -17.5t-0.5 -24t10 -21.5l58 -77h41zM322 340q-17 19 -42.5 33t-53.5 21.5t-56 7.5t-53.5 -9t-45.5 -26.5t-31.5 -46t-11.5 -67.5v-93q0 -50 16.5 -83.5t45.5 -53t67.5 -27t83.5 -7.5q18 0 37.5 1t39 1.5 t37.5 2t33 3.5t26 3v301q0 59 -11 99t-35.5 64.5t-64 35t-97.5 10.5l-7 -65q29 0 52 -5t38.5 -16.5t24 -31.5t8.5 -52zM322 270v-191l-4.5 -0.5t-12.5 -1t-18 -1.5t-20.5 -1.5t-20.5 -1.5q-40 0 -64.5 6.5t-37.5 19.5t-18 32t-5 44v68q0 20 6 33.5t16 20.5t22 10t24 3 q26 0 51.5 -7t47.5 -16.5t34 -16.5z" glyph-name="agrave" horiz-adv-x="450" unicode="à"/>
<glyph d="M306 631q8 11 10.5 22.5t-1.5 22.5t-16 17q-11 7 -23.5 5t-21.5 -10t-12 -21l-33 -113h41zM322 340q-17 19 -42.5 33t-53.5 21.5t-56 7.5t-53.5 -9t-45.5 -26.5t-31.5 -46t-11.5 -67.5v-93q0 -50 16.5 -83.5t45.5 -53t67.5 -27t83.5 -7.5q18 0 37.5 1t39 1.5t37.5 2 t33 3.5t26 3v301q0 59 -11 99t-35.5 64.5t-64 35t-97.5 10.5l-7 -65q29 0 52 -5t38.5 -16.5t24 -31.5t8.5 -52zM322 270v-191l-4.5 -0.5t-12.5 -1t-18 -1.5t-20.5 -1.5t-20.5 -1.5q-40 0 -64.5 6.5t-37.5 19.5t-18 32t-5 44v68q0 20 6 33.5t16 20.5t22 10t24 3q26 0 51.5 -7 t47.5 -16.5t34 -16.5z" glyph-name="aacute" horiz-adv-x="450" unicode="á"/>
<glyph d="M353 603l-128 127l-133 -128l48 -47l85 85l79 -83zM322 340q-17 19 -42.5 33t-53.5 21.5t-56 7.5t-53.5 -9t-45.5 -26.5t-31.5 -46t-11.5 -67.5v-93q0 -50 16.5 -83.5t45.5 -53t67.5 -27t83.5 -7.5q18 0 37.5 1t39 1.5t37.5 2t33 3.5t26 3v301q0 59 -11 99t-35.5 64.5 t-64 35t-97.5 10.5l-7 -65q29 0 52 -5t38.5 -16.5t24 -31.5t8.5 -52zM322 270v-191l-4.5 -0.5t-12.5 -1t-18 -1.5t-20.5 -1.5t-20.5 -1.5q-40 0 -64.5 6.5t-37.5 19.5t-18 32t-5 44v68q0 20 6 33.5t16 20.5t22 10t24 3q26 0 51.5 -7t47.5 -16.5t34 -16.5z" glyph-name="acircumflex" horiz-adv-x="450" unicode="â"/>
<glyph d="M290 668v-11q0 -10 -2 -20t-13 -10q-8 0 -17.5 6t-13.5 8q-10 7 -17.5 12t-17.5 9q-16 8 -34.5 8.5t-35.5 -6.5q-16 -7 -26 -19.5t-14 -28.5t-4 -34v-11h61v11q0 9 1.5 17.5t10.5 9.5q6 2 14 -1t15 -8q6 -3 17 -10t17 -10q10 -5 21 -9.5t23 -4.5q39 0 57.5 28t18.5 63v11 h-61zM322 340q-17 19 -42.5 33t-53.5 21.5t-56 7.5t-53.5 -9t-45.5 -26.5t-31.5 -46t-11.5 -67.5v-93q0 -50 16.5 -83.5t45.5 -53t67.5 -27t83.5 -7.5q18 0 37.5 1t39 1.5t37.5 2t33 3.5t26 3v301q0 59 -11 99t-35.5 64.5t-64 35t-97.5 10.5l-7 -65q29 0 52 -5t38.5 -16.5 t24 -31.5t8.5 -52zM322 270v-191l-4.5 -0.5t-12.5 -1t-18 -1.5t-20.5 -1.5t-20.5 -1.5q-40 0 -64.5 6.5t-37.5 19.5t-18 32t-5 44v68q0 20 6 33.5t16 20.5t22 10t24 3q26 0 51.5 -7t47.5 -16.5t34 -16.5z" glyph-name="atilde" horiz-adv-x="450" unicode="ã"/>
<glyph d="M145 675q-21 0 -36 -15t-15 -36t15 -36t36 -15q22 0 36.5 15t14.5 36t-14.5 36t-36.5 15zM304 675q-21 0 -36 -15t-15 -36t15 -36t36 -15t36 15t15 36t-15 36t-36 15zM322 340q-17 19 -42.5 33t-53.5 21.5t-56 7.5t-53.5 -9t-45.5 -26.5t-31.5 -46t-11.5 -67.5v-93 q0 -50 16.5 -83.5t45.5 -53t67.5 -27t83.5 -7.5q18 0 37.5 1t39 1.5t37.5 2t33 3.5t26 3v301q0 59 -11 99t-35.5 64.5t-64 35t-97.5 10.5l-7 -65q29 0 52 -5t38.5 -16.5t24 -31.5t8.5 -52zM322 270v-191l-4.5 -0.5t-12.5 -1t-18 -1.5t-20.5 -1.5t-20.5 -1.5q-40 0 -64.5 6.5 t-37.5 19.5t-18 32t-5 44v68q0 20 6 33.5t16 20.5t22 10t24 3q26 0 51.5 -7t47.5 -16.5t34 -16.5z" glyph-name="adieresis" horiz-adv-x="450" unicode="ä"/>
<glyph d="M226 668q-31 0 -57.5 -15t-42 -40.5t-15.5 -57.5t15.5 -58t42 -41t57.5 -15q32 0 57.5 15t41 41t15.5 58t-15.5 57.5t-41 40.5t-57.5 15zM226 598q18 0 32 -13q12 -12 12 -30q0 -10 -4 -18.5t-10 -14.5t-13.5 -9t-16.5 -3t-17 3.5t-14 9.5t-9.5 14t-3.5 18q0 9 3.5 17 t9.5 14q7 6 14.5 9t16.5 3zM322 340q-17 19 -42.5 33t-53.5 21.5t-56 7.5t-53.5 -9t-45.5 -26.5t-31.5 -46t-11.5 -67.5v-93q0 -50 16.5 -83.5t45.5 -53t67.5 -27t83.5 -7.5q18 0 37.5 1t39 1.5t37.5 2t33 3.5t26 3v301q0 59 -11 99t-35.5 64.5t-64 35t-97.5 10.5l-7 -65 q29 0 52 -5t38.5 -16.5t24 -31.5t8.5 -52zM322 270v-191l-4.5 -0.5t-12.5 -1t-18 -1.5t-20.5 -1.5t-20.5 -1.5q-40 0 -64.5 6.5t-37.5 19.5t-18 32t-5 44v68q0 20 6 33.5t16 20.5t22 10t24 3q26 0 51.5 -7t47.5 -16.5t34 -16.5z" glyph-name="aring" horiz-adv-x="450" unicode="å"/>
<glyph d="M322 340q-17 19 -42.5 33t-53.5 21.5t-56 7.5t-53.5 -9t-45.5 -26.5t-31.5 -46t-11.5 -67.5v-93q0 -50 16.5 -83.5t45.5 -53t67.5 -27t83.5 -7.5q18 0 37.5 1t39 1.5t37.5 2t33 3.5t26 3v301q0 59 -11 99t-35.5 64.5t-64 35t-97.5 10.5l-7 -65q29 0 52 -5t38.5 -16.5 t24 -31.5t8.5 -52zM322 270v-191l-4.5 -0.5t-12.5 -1t-18 -1.5t-20.5 -1.5t-20.5 -1.5q-40 0 -64.5 6.5t-37.5 19.5t-18 32t-5 44v68q0 20 6 33.5t16 20.5t22 10t24 3q26 0 51.5 -7t47.5 -16.5t34 -16.5zM419 144v37l267 14v148q0 56 -21.5 93t-61 56t-93.5 19 q-52 0 -94 -19t-66.5 -57t-24.5 -95v-205q0 -40 12.5 -68t35.5 -45.5t54 -26t67 -8.5q42 0 87 13t80 35l-34 78q-33 -17 -68 -28.5t-65 -11.5q-17 0 -31 4.5t-23.5 13.5t-15 22t-5.5 31zM594 325v-48l-175 -10v55q0 32 8.5 54.5t28.5 35t53 12.5q31 2 49 -12t27 -37t9 -50z " glyph-name="ae" horiz-adv-x="716" unicode="æ"/>
<glyph d="M229 8h-61l-45 -73l16 -36q19 2 34.5 3.5t28.5 2.5t23 1q21 0 32 -8.5t11 -26.5q0 -12 -6 -20.5t-17 -12.5t-27 -4q-18 0 -38 2t-36 4.5t-21 3.5l-13 -59q1 0 16.5 -3t39.5 -6t47 -3q56 0 86 27t30 74q0 38 -25.5 65.5t-72.5 26.5q-5 0 -10.5 0.5t-16.5 -0.5zM330 406 l21 73q-31 14 -64.5 23t-66.5 9q-62 2 -104.5 -23t-64 -68t-21.5 -100v-146q0 -64 24 -104.5t67.5 -60t100.5 -21.5q33 -1 66.5 4t64.5 13l-17 77l-8 -2t-22.5 -4.5t-32.5 -4t-36 -1.5q-27 0 -48.5 6.5t-36.5 19.5t-22.5 34t-7.5 49v146q1 35 14 59t38.5 36t60.5 10 q24 -1 49 -7.5t46 -16.5z" glyph-name="ccedilla" horiz-adv-x="384" unicode="ç"/>
<glyph d="M201 669q-3 12 -12.5 20.5t-22 11t-25.5 -5.5q-12 -6 -15.5 -17.5t-0.5 -24t10 -21.5l58 -77h41zM126 144v37l267 14v148q0 56 -21.5 93t-61 56t-93.5 19q-52 0 -94 -19t-66.5 -57t-24.5 -95v-205q0 -40 12.5 -68t35.5 -45.5t54 -26t67 -8.5q42 0 87 13t80 35l-34 78 q-33 -17 -68 -28.5t-65 -11.5q-17 0 -31 4.5t-23.5 13.5t-15 22t-5.5 31zM301 325v-48l-175 -10v55q0 32 8.5 54.5t28.5 35t53 12.5q31 2 49 -12t27 -37t9 -50z" glyph-name="egrave" horiz-adv-x="425" unicode="è"/>
<glyph d="M281 642q8 11 10.5 22.5t-1.5 22.5t-16 17q-11 7 -23.5 5t-21.5 -10t-12 -21l-33 -113h41zM126 144v37l267 14v148q0 56 -21.5 93t-61 56t-93.5 19q-52 0 -94 -19t-66.5 -57t-24.5 -95v-205q0 -40 12.5 -68t35.5 -45.5t54 -26t67 -8.5q42 0 87 13t80 35l-34 78 q-33 -17 -68 -28.5t-65 -11.5q-17 0 -31 4.5t-23.5 13.5t-15 22t-5.5 31zM301 325v-48l-175 -10v55q0 32 8.5 54.5t28.5 35t53 12.5q31 2 49 -12t27 -37t9 -50z" glyph-name="eacute" horiz-adv-x="425" unicode="é"/>
<glyph d="M342 603l-128 127l-133 -128l48 -47l85 85l79 -83zM126 144v37l267 14v148q0 56 -21.5 93t-61 56t-93.5 19q-52 0 -94 -19t-66.5 -57t-24.5 -95v-205q0 -40 12.5 -68t35.5 -45.5t54 -26t67 -8.5q42 0 87 13t80 35l-34 78q-33 -17 -68 -28.5t-65 -11.5q-17 0 -31 4.5 t-23.5 13.5t-15 22t-5.5 31zM301 325v-48l-175 -10v55q0 32 8.5 54.5t28.5 35t53 12.5q31 2 49 -12t27 -37t9 -50z" glyph-name="ecircumflex" horiz-adv-x="425" unicode="ê"/>
<glyph d="M133 675q-21 0 -36 -15t-15 -36t15 -36t36 -15q22 0 36.5 15t14.5 36t-14.5 36t-36.5 15zM292 675q-21 0 -36 -15t-15 -36t15 -36t36 -15t36 15t15 36t-15 36t-36 15zM126 144v37l267 14v148q0 56 -21.5 93t-61 56t-93.5 19q-52 0 -94 -19t-66.5 -57t-24.5 -95v-205 q0 -40 12.5 -68t35.5 -45.5t54 -26t67 -8.5q42 0 87 13t80 35l-34 78q-33 -17 -68 -28.5t-65 -11.5q-17 0 -31 4.5t-23.5 13.5t-15 22t-5.5 31zM301 325v-48l-175 -10v55q0 32 8.5 54.5t28.5 35t53 12.5q31 2 49 -12t27 -37t9 -50z" glyph-name="edieresis" horiz-adv-x="425" unicode="ë"/>
<glyph d="M75 682q-3 12 -12.5 20.5t-22 11t-25.5 -5.5q-12 -6 -15.5 -17.5t-0.5 -24t10 -21.5l58 -77h41zM39 0h93v500h-93v-500z" glyph-name="igrave" horiz-adv-x="172" unicode="ì"/>
<glyph d="M168 642q8 11 10.5 22.5t-1.5 22.5t-16 17q-11 7 -23.5 5t-21.5 -10t-12 -21l-33 -113h41zM39 0h93v500h-93v-500z" glyph-name="iacute" horiz-adv-x="172" unicode="í"/>
<glyph d="M216 603l-128 127l-133 -128l48 -47l85 85l79 -83zM39 0h93v500h-93v-500z" glyph-name="icircumflex" horiz-adv-x="172" unicode="î"/>
<glyph d="M6 675q-21 0 -36 -15t-15 -36t15 -36t36 -15q22 0 36.5 15t14.5 36t-14.5 36t-36.5 15zM165 675q-21 0 -36 -15t-15 -36t15 -36t36 -15t36 15t15 36t-15 36t-36 15zM39 0h93v500h-93v-500z" glyph-name="idieresis" horiz-adv-x="172" unicode="ï"/>
<glyph d="M293 662q-22 14 -48.5 24t-55.5 15l-21 -56q3 -1 14 -4.5t26.5 -11.5t31.5 -21l-79 -79l43 -43l77 77q11 -16 17 -36t6 -46v-88q-8 9 -19.5 16.5t-26 13t-30.5 8t-31 2.5q-83 0 -126.5 -47.5t-43.5 -139.5v-59q0 -91 47.5 -143.5t134.5 -52.5q91 0 139.5 50.5t48.5 145.5 v291q0 30 -6.5 55.5t-18.5 48t-31 42.5l42 41l-43 43zM211 82q-30 0 -50 12t-31 34.5t-11 54.5v76q0 29 9.5 49.5t28 31t45.5 10.5q20 0 38.5 -5t33 -14.5t22.5 -24.5t8 -35v-88q0 -33 -10.5 -55t-31.5 -34t-51 -12z" glyph-name="eth" horiz-adv-x="424" unicode="ð"/>
<glyph d="M288 668v-11q0 -10 -2 -20t-13 -10q-8 0 -17.5 6t-13.5 8q-10 7 -17.5 12t-17.5 9q-16 8 -34.5 8.5t-35.5 -6.5q-16 -7 -26 -19.5t-14 -28.5t-4 -34v-11h61v11q0 9 1.5 17.5t10.5 9.5q6 2 14 -1t15 -8q6 -3 17 -10t17 -10q10 -5 21 -9.5t23 -4.5q39 0 57.5 28t18.5 63v11 h-61zM317 343v-344h91v347q0 36 -8.5 63.5t-23.5 46.5t-35.5 31t-45 17.5t-51.5 5.5q-23 0 -44 -6t-39 -14t-30 -16v27h-92v-502h92v400q18 10 34 16t31.5 9t30.5 3q18 0 34.5 -5.5t29 -16t19.5 -26.5t7 -36z" glyph-name="ntilde" horiz-adv-x="445" unicode="ñ"/>
<glyph d="M208 682q-3 12 -12.5 20.5t-22 11t-25.5 -5.5q-12 -6 -15.5 -17.5t-0.5 -24t10 -21.5l58 -77h41zM400 185v132q0 92 -47 143.5t-135 51.5q-60 0 -102 -22.5t-64 -65.5t-22 -107v-132q0 -52 20 -96.5t62 -71.5t107 -27q91 0 136 53.5t45 141.5zM306 321v-145q0 -28 -9 -50 t-28.5 -34.5t-50.5 -12.5t-52 13t-31.5 35.5t-10.5 48.5v145q0 33 11 55t31.5 33.5t51.5 11.5q30 0 49.5 -11.5t29 -34t9.5 -54.5z" glyph-name="ograve" horiz-adv-x="432" unicode="ò"/>
<glyph d="M285 642q8 11 10.5 22.5t-1.5 22.5t-16 17q-11 7 -23.5 5t-21.5 -10t-12 -21l-33 -113h41zM400 185v132q0 92 -47 143.5t-135 51.5q-60 0 -102 -22.5t-64 -65.5t-22 -107v-132q0 -52 20 -96.5t62 -71.5t107 -27q91 0 136 53.5t45 141.5zM306 321v-145q0 -28 -9 -50 t-28.5 -34.5t-50.5 -12.5t-52 13t-31.5 35.5t-10.5 48.5v145q0 33 11 55t31.5 33.5t51.5 11.5q30 0 49.5 -11.5t29 -34t9.5 -54.5z" glyph-name="oacute" horiz-adv-x="432" unicode="ó"/>
<glyph d="M346 603l-128 127l-133 -128l48 -47l85 85l79 -83zM400 185v132q0 92 -47 143.5t-135 51.5q-60 0 -102 -22.5t-64 -65.5t-22 -107v-132q0 -52 20 -96.5t62 -71.5t107 -27q91 0 136 53.5t45 141.5zM306 321v-145q0 -28 -9 -50t-28.5 -34.5t-50.5 -12.5t-52 13t-31.5 35.5 t-10.5 48.5v145q0 33 11 55t31.5 33.5t51.5 11.5q30 0 49.5 -11.5t29 -34t9.5 -54.5z" glyph-name="ocircumflex" horiz-adv-x="432" unicode="ô"/>
<glyph d="M282 668v-11q0 -10 -2 -20t-13 -10q-8 0 -17.5 6t-13.5 8q-10 7 -17.5 12t-17.5 9q-16 8 -34.5 8.5t-35.5 -6.5q-16 -7 -26 -19.5t-14 -28.5t-4 -34v-11h61v11q0 9 1.5 17.5t10.5 9.5q6 2 14 -1t15 -8q6 -3 17 -10t17 -10q10 -5 21 -9.5t23 -4.5q39 0 57.5 28t18.5 63v11 h-61zM400 185v132q0 92 -47 143.5t-135 51.5q-60 0 -102 -22.5t-64 -65.5t-22 -107v-132q0 -52 20 -96.5t62 -71.5t107 -27q91 0 136 53.5t45 141.5zM306 321v-145q0 -28 -9 -50t-28.5 -34.5t-50.5 -12.5t-52 13t-31.5 35.5t-10.5 48.5v145q0 33 11 55t31.5 33.5t51.5 11.5 q30 0 49.5 -11.5t29 -34t9.5 -54.5z" glyph-name="otilde" horiz-adv-x="432" unicode="õ"/>
<glyph d="M131 675q-21 0 -36 -15t-15 -36t15 -36t36 -15q22 0 36.5 15t14.5 36t-14.5 36t-36.5 15zM290 675q-21 0 -36 -15t-15 -36t15 -36t36 -15t36 15t15 36t-15 36t-36 15zM400 185v132q0 92 -47 143.5t-135 51.5q-60 0 -102 -22.5t-64 -65.5t-22 -107v-132q0 -52 20 -96.5 t62 -71.5t107 -27q91 0 136 53.5t45 141.5zM306 321v-145q0 -28 -9 -50t-28.5 -34.5t-50.5 -12.5t-52 13t-31.5 35.5t-10.5 48.5v145q0 33 11 55t31.5 33.5t51.5 11.5q30 0 49.5 -11.5t29 -34t9.5 -54.5z" glyph-name="odieresis" horiz-adv-x="432" unicode="ö"/>
<glyph d="M29 346h320v75h-320v-75zM190 564q-21 0 -36 -15.5t-15 -35.5q0 -21 15 -36t36 -15t36.5 15t15.5 36q0 20 -15.5 35.5t-36.5 15.5zM190 305q-21 0 -36 -13.5t-15 -35.5t15 -36.5t36 -14.5t36.5 14.5t15.5 36.5t-15.5 35.5t-36.5 13.5z" glyph-name="divide" horiz-adv-x="380" unicode="÷"/>
<glyph d="M373 514h-78l-232 -534h76zM400 185v132q0 92 -47 143.5t-135 51.5q-60 0 -102 -22.5t-64 -65.5t-22 -107v-132q0 -52 20 -96.5t62 -71.5t107 -27q91 0 136 53.5t45 141.5zM306 321v-145q0 -28 -9 -50t-28.5 -34.5t-50.5 -12.5t-52 13t-31.5 35.5t-10.5 48.5v145 q0 33 11 55t31.5 33.5t51.5 11.5q30 0 49.5 -11.5t29 -34t9.5 -54.5z" glyph-name="oslash" horiz-adv-x="432" unicode="ø"/>
<glyph d="M213 681q-3 12 -12.5 20.5t-22 11t-25.5 -5.5q-12 -6 -15.5 -17.5t-0.5 -24t10 -21.5l58 -77h41zM314 33v-33h92v501h-92v-326q0 -21 -8 -38.5t-22 -30.5t-33 -20.5t-40 -7.5q-26 0 -44 8.5t-27.5 27.5t-9.5 50v337h-94v-343q0 -38 8.5 -65.5t24 -47t37 -31t46 -17 t50.5 -5.5q22 0 44.5 6t40.5 15.5t27 19.5z" glyph-name="ugrave" horiz-adv-x="446" unicode="ù"/>
<glyph d="M298 642q8 11 10.5 22.5t-1.5 22.5t-16 17q-11 7 -23.5 5t-21.5 -10t-12 -21l-33 -113h41zM314 33v-33h92v501h-92v-326q0 -21 -8 -38.5t-22 -30.5t-33 -20.5t-40 -7.5q-26 0 -44 8.5t-27.5 27.5t-9.5 50v337h-94v-343q0 -38 8.5 -65.5t24 -47t37 -31t46 -17t50.5 -5.5 q22 0 44.5 6t40.5 15.5t27 19.5z" glyph-name="uacute" horiz-adv-x="446" unicode="ú"/>
<glyph d="M352 603l-128 127l-133 -128l48 -47l85 85l79 -83zM314 33v-33h92v501h-92v-326q0 -21 -8 -38.5t-22 -30.5t-33 -20.5t-40 -7.5q-26 0 -44 8.5t-27.5 27.5t-9.5 50v337h-94v-343q0 -38 8.5 -65.5t24 -47t37 -31t46 -17t50.5 -5.5q22 0 44.5 6t40.5 15.5t27 19.5z" glyph-name="ucircumflex" horiz-adv-x="446" unicode="û"/>
<glyph d="M140 675q-21 0 -36 -15t-15 -36t15 -36t36 -15q22 0 36.5 15t14.5 36t-14.5 36t-36.5 15zM299 675q-21 0 -36 -15t-15 -36t15 -36t36 -15t36 15t15 36t-15 36t-36 15zM314 33v-33h92v501h-92v-326q0 -21 -8 -38.5t-22 -30.5t-33 -20.5t-40 -7.5q-26 0 -44 8.5t-27.5 27.5 t-9.5 50v337h-94v-343q0 -38 8.5 -65.5t24 -47t37 -31t46 -17t50.5 -5.5q22 0 44.5 6t40.5 15.5t27 19.5z" glyph-name="udieresis" horiz-adv-x="446" unicode="ü"/>
<glyph d="M308 642q8 11 10.5 22.5t-1.5 22.5t-16 17q-11 7 -23.5 5t-21.5 -10t-12 -21l-33 -113h41zM449 446l-30 66q-37 -3 -60.5 -20t-34 -42t-10.5 -52v-222q0 -20 -7 -38t-20 -31t-30.5 -21t-37.5 -8q-18 0 -34.5 5t-28.5 15.5t-19.5 26.5t-7.5 37v340h-93v-343 q0 -47 12.5 -78.5t36 -51t53 -28t63.5 -8.5q23 0 45 6t40.5 15.5t27.5 20.5v-87q0 -16 -4.5 -30.5t-13.5 -26.5t-21.5 -19.5t-28.5 -10.5l25 -73q44 4 74.5 22.5t45.5 51t15 78.5v438q0 28 10 45t33 23z" glyph-name="yacute" horiz-adv-x="479" unicode="ý"/>
<glyph d="M410 177v169q0 52 -18.5 89t-54.5 57t-89 19q-20 -1 -42.5 -6.5t-42 -15t-30.5 -19.5v230h-93v-891l93 -22v241q12 -11 29 -20.5t37 -14.5t41 -5q83 0 126.5 48.5t43.5 140.5zM317 340v-178q0 -28 -9.5 -48.5t-27 -31t-44.5 -10.5q-18 0 -36 5t-33 14.5t-24.5 24.5 t-9.5 35v238q8 8 23 16.5t34 15t37 6.5q17 1 33.5 -3t29 -14t20 -27.5t7.5 -42.5z" glyph-name="thorn" horiz-adv-x="443" unicode="þ"/>
<glyph d="M39 0h93v500h-93v-500z" glyph-name="dotlessi" horiz-adv-x="172" unicode="ı"/>
<glyph d="M126 710q-3 12 -12.5 20.5t-22 11t-25.5 -5.5q-12 -6 -15.5 -17.5t-0.5 -24t10 -21.5l58 -77h41z" glyph-name="gravecomb" unicode="̀"/>
<glyph d="M204 677q8 11 10.5 22.5t-1.5 22.5t-16 17q-11 7 -23.5 5t-21.5 -10t-12 -21l-33 -113h41z" glyph-name="acutecomb" unicode="́"/>
<glyph d="M264 638l-128 127l-133 -128l48 -47l85 85l79 -83z" glyph-name="circumflexcomb" unicode="̂"/>
<glyph d="M200 713v-11q0 -10 -2 -20t-13 -10q-8 0 -17.5 6t-13.5 8q-10 7 -17.5 12t-17.5 9q-16 8 -34.5 8.5t-35.5 -6.5q-16 -7 -26 -19.5t-14 -28.5t-4 -34v-11h61v11q0 9 1.5 17.5t10.5 9.5q6 2 14 -1t15 -8q6 -3 17 -10t17 -10q10 -5 21 -9.5t23 -4.5q39 0 57.5 28t18.5 63v11 h-61z" glyph-name="tildecomb" unicode="̃"/>
<glyph d="M244 699h-222v-79h222v79z" glyph-name="macroncomb" unicode="̄"/>
<glyph d="M54 760q-21 0 -36 -15t-15 -36t15 -36t36 -15q22 0 36.5 15t14.5 36t-14.5 36t-36.5 15zM213 760q-21 0 -36 -15t-15 -36t15 -36t36 -15t36 15t15 36t-15 36t-36 15z" glyph-name="dieresiscomb" unicode="̈"/>
<glyph d="M134 776q-31 0 -57.5 -15t-42 -40.5t-15.5 -57.5t15.5 -58t42 -41t57.5 -15q32 0 57.5 15t41 41t15.5 58t-15.5 57.5t-41 40.5t-57.5 15zM134 706q18 0 32 -13q12 -12 12 -30q0 -10 -4 -18.5t-10 -14.5t-13.5 -9t-16.5 -3t-17 3.5t-14 9.5t-9.5 14t-3.5 18q0 9 3.5 17 t9.5 14q7 6 14.5 9t16.5 3z" glyph-name="ringcomb" unicode="̊"/>
<glyph d="M171 3h-61l-45 -73l16 -36q19 2 34.5 3.5t28.5 2.5t23 1q21 0 32 -8.5t11 -26.5q0 -12 -6 -20.5t-17 -12.5t-27 -4q-18 0 -38 2t-36 4.5t-21 3.5l-13 -59q1 0 16.5 -3t39.5 -6t47 -3q56 0 86 27t30 74q0 38 -25.5 65.5t-72.5 26.5q-5 0 -10.5 0.5t-16.5 -0.5z" glyph-name="cedillacomb" unicode="̧"/>
<glyph d="M477 157v543h-93v-288q0 -26 -10.5 -46.5t-28.5 -35t-40.5 -22t-45.5 -7.5q-45 0 -75 15t-45 44.5t-15 72.5v267h-93v-272q0 -66 26 -113t74 -73t112 -26q26 0 51.5 4t48.5 14t41 27v-100q0 -26 -5 -45t-14 -31.5t-22.5 -20t-29.5 -11.5l28 -68q71 8 103.5 51.5 t32.5 120.5z" glyph-name="Upsilon" horiz-adv-x="518" unicode="Υ"/>
<glyph d="M20 501l158 -501h96l157 501h-99l-105 -368l-107 368h-100z" glyph-name="nu" horiz-adv-x="456" unicode="ν"/>
<glyph d="M25 -115h85l327 934h-87z" glyph-name="fraction" horiz-adv-x="459" unicode="⁄"/>
<glyph d="M291 325l191 375h-101l-137 -275l-136 275h-99l189 -376v-324h93v325z" glyph-name="Y_upper_alt" horiz-adv-x="492" unicode="馗"/>
</font>
</defs>
</svg>
