<svg width="0" height="0" class="hidden">
  <symbol fill="none" xmlns="http://www.w3.org/2000/svg" viewBox="0 0 70 70" id="app">
    <path d="M50.3434 0H19.6565C17.2782 0 15.3432 1.93485 15.3432 4.31321V65.6868C15.3432 68.0652 17.278 70 19.6565 70H50.3432C52.7216 70 54.6566 68.0652 54.6566 65.6868V4.31321C54.6566 1.93485 52.7217 0 50.3434 0ZM52.6058 65.6869C52.6058 66.9345 51.5908 67.9493 50.3432 67.9493H19.6565C18.409 67.9493 17.394 66.9343 17.394 65.6869V4.31321C17.394 3.06565 18.409 2.05079 19.6565 2.05079H50.3432C51.5908 2.05079 52.6058 3.06579 52.6058 4.31321V65.6869Z" fill="#3BC6CF"></path>
    <path d="M49.2475 59.1818H20.7525C20.1861 59.1818 19.7271 59.6407 19.7271 60.2072C19.7271 60.7734 20.1861 61.2326 20.7525 61.2326H49.2475C49.8139 61.2326 50.2729 60.7734 50.2729 60.2072C50.2729 59.6409 49.8139 59.1818 49.2475 59.1818Z" fill="#3BC6CF"></path>
    <path d="M49.2475 4.38379H20.7525C20.1861 4.38379 19.7271 4.84289 19.7271 5.40918C19.7271 5.97547 20.1861 6.43457 20.7525 6.43457H49.2475C49.8139 6.43457 50.2729 5.97547 50.2729 5.40918C50.2729 4.84289 49.8139 4.38379 49.2475 4.38379Z" fill="#3BC6CF"></path>
    <path d="M36.0963 63.5656H33.9043C33.3378 63.5656 32.8789 64.0247 32.8789 64.5909C32.8789 65.1572 33.3378 65.6163 33.9043 65.6163H36.0963C36.6627 65.6163 37.1217 65.1572 37.1217 64.5909C37.1217 64.0247 36.6626 63.5656 36.0963 63.5656Z" fill="#3BC6CF"></path>
    <path d="M46.8721 45.7677L44.8796 23.8484C44.7795 22.7486 43.8713 21.9193 42.767 21.9193H39.3135V20.7528C39.3135 18.3744 37.3785 16.4395 35.0001 16.4395C32.6217 16.4395 30.6868 18.3743 30.6868 20.7527V21.9192H27.2332C26.129 21.9192 25.2207 22.7485 25.1207 23.8485L23.1281 45.7677C23.0741 46.3599 23.2733 46.9512 23.6742 47.3903C24.0752 47.8293 24.646 48.0812 25.2406 48.0812H44.7597C45.3542 48.0812 45.925 47.8293 46.326 47.3903C46.727 46.9512 46.9261 46.3599 46.8721 45.7677ZM35.0001 18.4902C36.2477 18.4902 37.2627 19.5051 37.2627 20.7527V21.9192H32.7375V20.7527C32.7375 19.5051 33.7525 18.4902 35.0001 18.4902ZM44.8116 46.0074C44.7907 46.0304 44.7683 46.0304 44.7597 46.0304H25.2406C25.2319 46.0304 25.2095 46.0304 25.1886 46.0074C25.1675 45.9844 25.1696 45.9619 25.1703 45.9533L27.1628 24.0343C27.1661 23.9977 27.1965 23.9699 27.2332 23.9699H30.6868V26.2325C30.6868 26.7988 31.1457 27.2579 31.7122 27.2579C32.2786 27.2579 32.7375 26.7988 32.7375 26.2325V23.9699H37.2627V26.2325C37.2627 26.7988 37.7216 27.2579 38.2881 27.2579C38.8545 27.2579 39.3135 26.7988 39.3135 26.2325V23.9699H42.767C42.8038 23.9699 42.834 23.9977 42.8374 24.0342L44.8299 45.9533C44.8306 45.9619 44.8328 45.9843 44.8116 46.0074Z" fill="#3BC6CF"></path>
  </symbol>
  <symbol fill="none" xmlns="http://www.w3.org/2000/svg" viewBox="0 0 70 70" id="desctop">
    <path d="M64.873 2.5293H5.12695C2.29988 2.5293 0 4.82918 0 7.65625V52.7734C0 55.6005 2.29988 57.9004 5.12695 57.9004H27.0097L25.7756 62.2199C25.28 63.9546 23.3372 65.4199 21.5332 65.4199H13.8086C13.2423 65.4199 12.7832 65.8789 12.7832 66.4453C12.7832 67.0117 13.2423 67.4707 13.8086 67.4707H56.1914C56.7577 67.4707 57.2168 67.0117 57.2168 66.4453C57.2168 65.8789 56.7577 65.4199 56.1914 65.4199H48.4668C46.6628 65.4199 44.72 63.9544 44.2244 62.2199L42.9903 57.9004H64.873C67.7001 57.9004 70 55.6005 70 52.7734V7.65625C70 4.82918 67.7001 2.5293 64.873 2.5293ZM5.12695 4.58008H64.873C66.5693 4.58008 67.9492 5.96012 67.9492 7.65625V43.5449H2.05078V7.65625C2.05078 5.96012 3.43068 4.58008 5.12695 4.58008ZM42.2525 62.7833C42.5339 63.7684 43.0932 64.6733 43.8264 65.4199H26.1736C26.9068 64.6733 27.4661 63.7682 27.7475 62.7833L29.1426 57.9004H40.8573L42.2525 62.7833ZM64.873 55.8496H5.12695C3.43068 55.8496 2.05078 54.4696 2.05078 52.7734V45.5957H67.9492V52.7734C67.9492 54.4696 66.5693 55.8496 64.873 55.8496Z" fill="#2BD195"></path>
    <path d="M5.12695 41.4941H64.873C65.4393 41.4941 65.8984 41.0352 65.8984 40.4688V7.65625C65.8984 7.08982 65.4393 6.63086 64.873 6.63086H5.12695C4.56066 6.63086 4.10156 7.08982 4.10156 7.65625V22.0117C4.10156 22.5781 4.56066 23.0371 5.12695 23.0371C5.69324 23.0371 6.15234 22.5781 6.15234 22.0117V8.68164H63.8477V39.4434H6.15234V26.1133C6.15234 25.5469 5.69324 25.0879 5.12695 25.0879C4.56066 25.0879 4.10156 25.5469 4.10156 26.1133V40.4688C4.10156 41.0352 4.56066 41.4941 5.12695 41.4941Z" fill="#2BD195"></path>
    <path d="M35 47.6465C33.3037 47.6465 31.9238 49.0265 31.9238 50.7227C31.9238 52.4188 33.3037 53.7988 35 53.7988C36.6963 53.7988 38.0762 52.4188 38.0762 50.7227C38.0762 49.0265 36.6963 47.6465 35 47.6465ZM35 51.748C34.4345 51.748 33.9746 51.2881 33.9746 50.7227C33.9746 50.1572 34.4345 49.6973 35 49.6973C35.5655 49.6973 36.0254 50.1572 36.0254 50.7227C36.0254 51.2881 35.5655 51.748 35 51.748Z" fill="#2BD195"></path>
  </symbol>
  <symbol fill="none" xmlns="http://www.w3.org/2000/svg" viewBox="0 0 25 14" id="menu">
    <rect width="25" height="2" rx="1" fill="white"></rect>
    <path d="M3 7C3 6.44772 3.44772 6 4 6H24C24.5523 6 25 6.44772 25 7C25 7.55228 24.5523 8 24 8H4C3.44772 8 3 7.55228 3 7Z" fill="white"></path>
    <rect y="12" width="25" height="2" rx="1" fill="white"></rect>
  </symbol>
  <symbol fill="none" xmlns="http://www.w3.org/2000/svg" viewBox="0 0 24 24" id="send">
    <path d="M22 2L11 13" stroke="#EF8B53" stroke-width="2" stroke-linecap="round" stroke-linejoin="round"></path>
    <path d="M22 2L15 22L11 13L2 9L22 2Z" stroke="#EF8B53" stroke-width="2" stroke-linecap="round" stroke-linejoin="round"></path>
  </symbol>
  <symbol fill="none" xmlns="http://www.w3.org/2000/svg" viewBox="0 0 70 70" id="web">
    <path d="M30.1596 60.4505V42.5472C30.1596 41.9302 29.6596 41.4302 29.0426 41.4302H21.5958C20.9787 41.4302 20.4788 41.9302 20.4788 42.5472C20.4788 43.1642 20.9787 43.6642 21.5958 43.6642H27.9256V60.4505C25.7935 60.9563 24.2022 62.8749 24.2022 65.1594C24.2022 67.8285 26.3735 69.9999 29.0426 69.9999C31.7117 69.9999 33.883 67.8285 33.883 65.1594C33.883 62.8749 32.2916 60.9563 30.1596 60.4505ZM29.0426 67.7658C27.6055 67.7658 26.4362 66.5965 26.4362 65.1594C26.4362 63.7224 27.6055 62.5531 29.0426 62.5531C30.4797 62.5531 31.649 63.7224 31.649 65.1594C31.649 66.5965 30.4797 67.7658 29.0426 67.7658Z" fill="#EF8B53"></path>
    <path d="M42.0745 60.4505V42.5472C42.0745 41.9302 41.5745 41.4302 40.9575 41.4302H33.5108C32.8938 41.4302 32.3938 41.9302 32.3938 42.5472C32.3938 43.1642 32.8938 43.6642 33.5108 43.6642H39.8405V60.4505C37.7084 60.9563 36.1171 62.8749 36.1171 65.1594C36.1171 67.8285 38.2884 69.9999 40.9575 69.9999C43.6266 69.9999 45.7979 67.8285 45.7979 65.1594C45.7979 62.8749 44.2065 60.9563 42.0745 60.4505ZM40.9575 67.7658C39.5204 67.7658 38.3511 66.5965 38.3511 65.1594C38.3511 63.7224 39.5204 62.5531 40.9575 62.5531C42.3946 62.5531 43.5639 63.7224 43.5639 65.1594C43.5639 66.5965 42.3946 67.7658 40.9575 67.7658Z" fill="#EF8B53"></path>
    <path d="M61.0638 52.8722C58.7793 52.8722 56.8607 54.4636 56.3549 56.5956H53.9893V42.5472C53.9893 41.9302 53.4893 41.4302 52.8723 41.4302H45.4255C44.8085 41.4302 44.3085 41.9302 44.3085 42.5472C44.3085 43.1642 44.8085 43.6642 45.4255 43.6642H51.7553V57.7126C51.7553 58.3297 52.2553 58.8296 52.8723 58.8296H56.3549C56.8607 60.9617 58.7793 62.5531 61.0638 62.5531C63.7329 62.5531 65.9042 60.3817 65.9042 57.7126C65.9042 55.0435 63.7329 52.8722 61.0638 52.8722ZM61.0638 60.319C59.6267 60.319 58.4574 59.1497 58.4574 57.7126C58.4574 56.2755 59.6267 55.1062 61.0638 55.1062C62.5009 55.1062 63.6702 56.2755 63.6702 57.7126C63.6702 59.1497 62.5009 60.319 61.0638 60.319Z" fill="#EF8B53"></path>
    <path d="M67.3401 24.0617C65.8347 22.1925 63.79 20.8077 61.5148 20.1012C61.2586 14.8135 59.0648 9.87998 55.2833 6.13006C51.2969 2.177 46.0097 0 40.3954 0C33.0229 0 26.2009 3.84434 22.3643 10.0959C21.4313 9.80179 20.4616 9.6533 19.4698 9.6533C14.9069 9.6533 10.983 12.8742 10.0368 17.2647C4.17677 18.7849 0 24.1259 0 30.2491C0 37.6463 6.01791 43.6644 13.4151 43.6644H16.0106V56.5957H13.6451C13.1393 54.4637 11.2207 52.8723 8.93617 52.8723C6.26709 52.8723 4.09574 55.0437 4.09574 57.7128C4.09574 60.3819 6.26709 62.5532 8.93617 62.5532C11.2207 62.5532 13.1393 60.9618 13.6451 58.8298H17.1277C17.7447 58.8298 18.2447 58.3298 18.2447 57.7128V42.5473C18.2447 41.9303 17.7447 41.4303 17.1277 41.4303H13.4151C7.24991 41.4303 2.23404 36.4144 2.23404 30.2491C2.23404 24.9286 6.01628 20.3168 11.2273 19.2834C11.6971 19.1903 12.0555 18.8078 12.1176 18.3327C12.5985 14.6583 15.7592 11.8875 19.4698 11.8875C20.4906 11.8875 21.4806 12.092 22.4122 12.4951C22.9403 12.7238 23.5553 12.5138 23.8335 12.0105C27.1673 5.98008 33.5135 2.23404 40.3954 2.23404C50.7291 2.23404 59.212 10.6397 59.3052 20.972C59.3098 21.4882 59.6676 21.9338 60.1704 22.0501C64.6426 23.0851 67.7661 27.0173 67.7661 31.6123C67.7661 37.026 63.3619 41.4303 57.9482 41.4303H57.3404C56.7234 41.4303 56.2234 41.9303 56.2234 42.5473C56.2234 43.1644 56.7234 43.6644 57.3404 43.6644H57.9481C64.5935 43.6644 70 38.2578 70 31.6123C70 28.8726 69.0553 26.191 67.3401 24.0617ZM8.93617 60.3191C7.49908 60.3191 6.32979 59.1498 6.32979 57.7128C6.32979 56.2757 7.49908 55.1064 8.93617 55.1064C10.3733 55.1064 11.5426 56.2757 11.5426 57.7128C11.5426 59.1498 10.3733 60.3191 8.93617 60.3191Z" fill="#EF8B53"></path>
    <path d="M54.4648 22.1329H54.4751C55.092 22.1272 55.5875 21.6226 55.5819 21.0057C55.5653 19.1658 55.2179 17.3653 54.5497 15.6543C54.3251 15.0797 53.6775 14.7957 53.1028 15.0201C52.5281 15.2446 52.2442 15.8923 52.4686 16.467C53.0379 17.9242 53.3336 19.4581 53.3478 21.026C53.3536 21.6396 53.8525 22.1329 54.4648 22.1329Z" fill="#EF8B53"></path>
    <path d="M50.3818 12.9211C50.6027 13.1886 50.9219 13.3268 51.2436 13.3268C51.4942 13.3268 51.7462 13.243 51.9543 13.0709C52.4298 12.6781 52.497 11.974 52.1041 11.4983C49.1954 7.97703 44.9276 5.95746 40.3955 5.95746C39.7784 5.95746 39.2784 6.45744 39.2784 7.07448C39.2784 7.69152 39.7784 8.1915 40.3955 8.1915C44.2589 8.1915 47.8987 9.91529 50.3818 12.9211Z" fill="#EF8B53"></path>
  </symbol>
</svg>